<svg xmlns="http://www.w3.org/2000/svg" xmlns:xlink="http://www.w3.org/1999/xlink" id="Layer_1" version="1.1" viewBox="0 0 227.5 201.3" width="227.5"  height="201.3" >
  <!-- Generator: Adobe Illustrator 29.0.0, SVG Export Plug-In . SVG Version: 2.1.0 Build 186)  -->
  <defs>
    <style>
      .st0 {
        fill: none;
      }

      .st1 {
        fill: url(#New_Gradient_Swatch_copy9);
      }

      .st2 {
        fill: url(#New_Gradient_Swatch_copy3);
      }

      .st3 {
        fill: url(#New_Gradient_Swatch_copy4);
      }

      .st4 {
        fill: url(#New_Gradient_Swatch_copy1);
      }

      .st5 {
        fill: url(#New_Gradient_Swatch_copy2);
      }

      .st6 {
        fill: url(#New_Gradient_Swatch_copy7);
      }

      .st7 {
        fill: url(#New_Gradient_Swatch_copy8);
      }

      .st8 {
        fill: url(#New_Gradient_Swatch_copy5);
      }

      .st9 {
        fill: url(#New_Gradient_Swatch_copy6);
      }

      .st10 {
        fill: url(#New_Gradient_Swatch_copy10);
      }

      .st11 {
        fill: url(#New_Gradient_Swatch_copy12);
      }

      .st12 {
        fill: url(#New_Gradient_Swatch_copy11);
      }

      .st13 {
        fill: url(#New_Gradient_Swatch_copy25);
      }

      .st14 {
        fill: url(#New_Gradient_Swatch_copy21);
      }

      .st15 {
        fill: url(#New_Gradient_Swatch_copy22);
      }

      .st16 {
        fill: url(#New_Gradient_Swatch_copy20);
      }

      .st17 {
        fill: url(#New_Gradient_Swatch_copy17);
      }

      .st18 {
        fill: url(#New_Gradient_Swatch_copy19);
      }

      .st19 {
        fill: url(#New_Gradient_Swatch_copy18);
      }

      .st20 {
        fill: url(#New_Gradient_Swatch_copy13);
      }

      .st21 {
        fill: url(#New_Gradient_Swatch_copy15);
      }

      .st22 {
        fill: url(#New_Gradient_Swatch_copy14);
      }

      .st23 {
        fill: url(#New_Gradient_Swatch_copy16);
      }

      .st24 {
        fill: url(#New_Gradient_Swatch_copy28);
      }

      .st25 {
        fill: url(#New_Gradient_Swatch_copy29);
      }

      .st26 {
        fill: url(#New_Gradient_Swatch_copy26);
      }

      .st27 {
        fill: url(#New_Gradient_Swatch_copy27);
      }

      .st28 {
        fill: url(#New_Gradient_Swatch_copy24);
      }

      .st29 {
        fill: url(#New_Gradient_Swatch_copy23);
      }

      .st30 {
        fill: url(#New_Gradient_Swatch_copy42);
      }

      .st31 {
        fill: url(#New_Gradient_Swatch_copy49);
      }

      .st32 {
        fill: url(#New_Gradient_Swatch_copy48);
      }

      .st33 {
        fill: url(#New_Gradient_Swatch_copy47);
      }

      .st34 {
        fill: url(#New_Gradient_Swatch_copy40);
      }

      .st35 {
        fill: url(#New_Gradient_Swatch_copy41);
      }

      .st36 {
        fill: url(#New_Gradient_Swatch_copy31);
      }

      .st37 {
        fill: url(#New_Gradient_Swatch_copy30);
      }

      .st38 {
        fill: url(#New_Gradient_Swatch_copy44);
      }

      .st39 {
        fill: url(#New_Gradient_Swatch_copy45);
      }

      .st40 {
        fill: url(#New_Gradient_Swatch_copy43);
      }

      .st41 {
        fill: url(#New_Gradient_Swatch_copy46);
      }

      .st42 {
        fill: url(#New_Gradient_Swatch_copy33);
      }

      .st43 {
        fill: url(#New_Gradient_Swatch_copy32);
      }

      .st44 {
        fill: url(#New_Gradient_Swatch_copy35);
      }

      .st45 {
        fill: url(#New_Gradient_Swatch_copy34);
      }

      .st46 {
        fill: url(#New_Gradient_Swatch_copy37);
      }

      .st47 {
        fill: url(#New_Gradient_Swatch_copy36);
      }

      .st48 {
        fill: url(#New_Gradient_Swatch_copy39);
      }

      .st49 {
        fill: url(#New_Gradient_Swatch_copy38);
      }

      .st50 {
        fill: url(#New_Gradient_Swatch_copy);
      }

      .st51 {
        fill: #009ad0;
      }
    </style>
    <linearGradient id="New_Gradient_Swatch_copy" data-name="New Gradient Swatch copy" x1="167.6" y1="201.3" x2="180.9" y2="201.3" gradientTransform="translate(83.5 449.5) rotate(-144.3)" gradientUnits="userSpaceOnUse">
      <stop offset="0" stop-color="#f6e0c4"/>
      <stop offset=".2" stop-color="#ca9e67"/>
      <stop offset=".3" stop-color="#f6e0c4"/>
      <stop offset=".5" stop-color="#ca9e67"/>
      <stop offset=".7" stop-color="#f6e0c4"/>
      <stop offset=".8" stop-color="#ca9e67"/>
      <stop offset="1" stop-color="#f6e0c4"/>
    </linearGradient>
    <linearGradient id="New_Gradient_Swatch_copy1" data-name="New Gradient Swatch copy" x1="175.5" y1="194.9" x2="188.7" y2="194.9" gradientTransform="translate(59.1 445.1) rotate(-138.4)" xlink:href="#New_Gradient_Swatch_copy"/>
    <linearGradient id="New_Gradient_Swatch_copy2" data-name="New Gradient Swatch copy" x1="182.6" y1="187.8" x2="195.8" y2="187.8" gradientTransform="translate(35.4 438.3) rotate(-132.5)" xlink:href="#New_Gradient_Swatch_copy"/>
    <linearGradient id="New_Gradient_Swatch_copy3" data-name="New Gradient Swatch copy" x1="189" y1="180" x2="202.2" y2="180" gradientTransform="translate(12.5 429) rotate(-126.6)" xlink:href="#New_Gradient_Swatch_copy"/>
    <linearGradient id="New_Gradient_Swatch_copy4" data-name="New Gradient Swatch copy" x1="194.5" y1="171.5" x2="207.7" y2="171.5" gradientTransform="translate(-9.4 417.4) rotate(-120.7)" xlink:href="#New_Gradient_Swatch_copy"/>
    <linearGradient id="New_Gradient_Swatch_copy5" data-name="New Gradient Swatch copy" x1="199.1" y1="162.5" x2="212.4" y2="162.5" gradientTransform="translate(-29.9 403.6) rotate(-114.8)" xlink:href="#New_Gradient_Swatch_copy"/>
    <linearGradient id="New_Gradient_Swatch_copy6" data-name="New Gradient Swatch copy" x1="202.8" y1="153.1" x2="216.1" y2="153.1" gradientTransform="translate(-48.9 387.8) rotate(-108.8)" xlink:href="#New_Gradient_Swatch_copy"/>
    <linearGradient id="New_Gradient_Swatch_copy7" data-name="New Gradient Swatch copy" x1="205.5" y1="143.4" x2="218.8" y2="143.4" gradientTransform="translate(-66.2 370.1) rotate(-102.9)" xlink:href="#New_Gradient_Swatch_copy"/>
    <linearGradient id="New_Gradient_Swatch_copy8" data-name="New Gradient Swatch copy" x1="207.2" y1="133.4" x2="220.4" y2="133.4" gradientTransform="translate(-81.6 350.7) rotate(-97)" xlink:href="#New_Gradient_Swatch_copy"/>
    <linearGradient id="New_Gradient_Swatch_copy9" data-name="New Gradient Swatch copy" x1="207.9" y1="123.3" x2="221.1" y2="123.3" gradientTransform="translate(-94.9 329.8) rotate(-91.1)" xlink:href="#New_Gradient_Swatch_copy"/>
    <linearGradient id="New_Gradient_Swatch_copy10" data-name="New Gradient Swatch copy" x1="207.5" y1="113.2" x2="220.7" y2="113.2" gradientTransform="translate(-106 307.7) rotate(-85.2)" xlink:href="#New_Gradient_Swatch_copy"/>
    <linearGradient id="New_Gradient_Swatch_copy11" data-name="New Gradient Swatch copy" x1="206" y1="103.2" x2="219.3" y2="103.2" gradientTransform="translate(-114.7 284.6) rotate(-79.3)" xlink:href="#New_Gradient_Swatch_copy"/>
    <linearGradient id="New_Gradient_Swatch_copy12" data-name="New Gradient Swatch copy" x1="203.6" y1="93.4" x2="216.8" y2="93.4" gradientTransform="translate(-121.1 260.7) rotate(-73.4)" xlink:href="#New_Gradient_Swatch_copy"/>
    <linearGradient id="New_Gradient_Swatch_copy13" data-name="New Gradient Swatch copy" x1="200.2" y1="83.9" x2="213.4" y2="83.9" gradientTransform="translate(-124.9 236.2) rotate(-67.5)" xlink:href="#New_Gradient_Swatch_copy"/>
    <linearGradient id="New_Gradient_Swatch_copy14" data-name="New Gradient Swatch copy" x1="195.8" y1="74.8" x2="209" y2="74.8" gradientTransform="translate(-126.2 211.5) rotate(-61.6)" xlink:href="#New_Gradient_Swatch_copy"/>
    <linearGradient id="New_Gradient_Swatch_copy15" data-name="New Gradient Swatch copy" x1="190.5" y1="66.3" x2="203.7" y2="66.3" gradientTransform="translate(-124.9 186.8) rotate(-55.7)" xlink:href="#New_Gradient_Swatch_copy"/>
    <linearGradient id="New_Gradient_Swatch_copy16" data-name="New Gradient Swatch copy" x1="184.3" y1="58.3" x2="197.5" y2="58.3" gradientTransform="translate(-121.2 162.4) rotate(-49.8)" xlink:href="#New_Gradient_Swatch_copy"/>
    <linearGradient id="New_Gradient_Swatch_copy17" data-name="New Gradient Swatch copy" x1="177.3" y1="50.9" x2="190.6" y2="50.9" gradientTransform="translate(-114.9 138.5) rotate(-43.9)" xlink:href="#New_Gradient_Swatch_copy"/>
    <linearGradient id="New_Gradient_Swatch_copy18" data-name="New Gradient Swatch copy" x1="169.7" y1="44.4" x2="182.9" y2="44.4" gradientTransform="translate(-106.2 115.3) rotate(-38)" xlink:href="#New_Gradient_Swatch_copy"/>
    <linearGradient id="New_Gradient_Swatch_copy19" data-name="New Gradient Swatch copy" x1="161.3" y1="38.6" x2="174.6" y2="38.6" gradientTransform="translate(-95.2 93.2) rotate(-32.1)" xlink:href="#New_Gradient_Swatch_copy"/>
    <linearGradient id="New_Gradient_Swatch_copy20" data-name="New Gradient Swatch copy" x1="152.5" y1="33.7" x2="165.7" y2="33.7" gradientTransform="translate(-81.9 72.3) rotate(-26.2)" xlink:href="#New_Gradient_Swatch_copy"/>
    <linearGradient id="New_Gradient_Swatch_copy21" data-name="New Gradient Swatch copy" x1="143.2" y1="29.8" x2="156.4" y2="29.8" gradientTransform="translate(-66.6 52.9) rotate(-20.3)" xlink:href="#New_Gradient_Swatch_copy"/>
    <linearGradient id="New_Gradient_Swatch_copy22" data-name="New Gradient Swatch copy" x1="133.5" y1="26.9" x2="146.8" y2="26.9" gradientTransform="translate(-49.3 35.1) rotate(-14.4)" xlink:href="#New_Gradient_Swatch_copy"/>
    <linearGradient id="New_Gradient_Swatch_copy23" data-name="New Gradient Swatch copy" x1="123.6" y1="24.9" x2="136.8" y2="24.9" gradientTransform="translate(-30.4 19.3) rotate(-8.5)" xlink:href="#New_Gradient_Swatch_copy"/>
    <linearGradient id="New_Gradient_Swatch_copy24" data-name="New Gradient Swatch copy" x1="113.5" y1="24" x2="126.8" y2="24" gradientTransform="translate(-9.9 5.4) rotate(-2.6)" xlink:href="#New_Gradient_Swatch_copy"/>
    <linearGradient id="New_Gradient_Swatch_copy25" data-name="New Gradient Swatch copy" x1="103.4" y1="24.1" x2="116.7" y2="24.1" gradientTransform="translate(12 -6.2) rotate(3.3)" xlink:href="#New_Gradient_Swatch_copy"/>
    <linearGradient id="New_Gradient_Swatch_copy26" data-name="New Gradient Swatch copy" x1="93.4" y1="25.3" x2="106.6" y2="25.3" gradientTransform="translate(34.9 -15.6) rotate(9.2)" xlink:href="#New_Gradient_Swatch_copy"/>
    <linearGradient id="New_Gradient_Swatch_copy27" data-name="New Gradient Swatch copy" x1="83.5" y1="27.5" x2="96.8" y2="27.5" gradientTransform="translate(58.6 -22.5) rotate(15.1)" xlink:href="#New_Gradient_Swatch_copy"/>
    <linearGradient id="New_Gradient_Swatch_copy28" data-name="New Gradient Swatch copy" x1="74" y1="30.7" x2="87.2" y2="30.7" gradientTransform="translate(82.9 -27) rotate(21)" xlink:href="#New_Gradient_Swatch_copy"/>
    <linearGradient id="New_Gradient_Swatch_copy29" data-name="New Gradient Swatch copy" x1="64.8" y1="34.9" x2="78" y2="34.9" gradientTransform="translate(107.6 -28.9) rotate(26.9)" xlink:href="#New_Gradient_Swatch_copy"/>
    <linearGradient id="New_Gradient_Swatch_copy30" data-name="New Gradient Swatch copy" x1="56" y1="40" x2="69.3" y2="40" gradientTransform="translate(132.3 -28.3) rotate(32.8)" xlink:href="#New_Gradient_Swatch_copy"/>
    <linearGradient id="New_Gradient_Swatch_copy31" data-name="New Gradient Swatch copy" x1="47.9" y1="45.9" x2="61.1" y2="45.9" gradientTransform="translate(156.9 -25.1) rotate(38.7)" xlink:href="#New_Gradient_Swatch_copy"/>
    <linearGradient id="New_Gradient_Swatch_copy32" data-name="New Gradient Swatch copy" x1="40.4" y1="52.7" x2="53.6" y2="52.7" gradientTransform="translate(180.9 -19.5) rotate(44.6)" xlink:href="#New_Gradient_Swatch_copy"/>
    <linearGradient id="New_Gradient_Swatch_copy33" data-name="New Gradient Swatch copy" x1="33.6" y1="60.2" x2="46.8" y2="60.2" gradientTransform="translate(204.3 -11.4) rotate(50.5)" xlink:href="#New_Gradient_Swatch_copy"/>
    <linearGradient id="New_Gradient_Swatch_copy34" data-name="New Gradient Swatch copy" x1="27.6" y1="68.3" x2="40.9" y2="68.3" gradientTransform="translate(226.7 -.9) rotate(56.4)" xlink:href="#New_Gradient_Swatch_copy"/>
    <linearGradient id="New_Gradient_Swatch_copy35" data-name="New Gradient Swatch copy" x1="22.5" y1="77.1" x2="35.8" y2="77.1" gradientTransform="translate(247.9 11.8) rotate(62.3)" xlink:href="#New_Gradient_Swatch_copy"/>
    <linearGradient id="New_Gradient_Swatch_copy36" data-name="New Gradient Swatch copy" x1="18.4" y1="86.3" x2="31.6" y2="86.3" gradientTransform="translate(267.7 26.6) rotate(68.2)" xlink:href="#New_Gradient_Swatch_copy"/>
    <linearGradient id="New_Gradient_Swatch_copy37" data-name="New Gradient Swatch copy" x1="15.2" y1="95.9" x2="28.4" y2="95.9" gradientTransform="translate(285.9 43.4) rotate(74.1)" xlink:href="#New_Gradient_Swatch_copy"/>
    <linearGradient id="New_Gradient_Swatch_copy38" data-name="New Gradient Swatch copy" x1="13" y1="105.7" x2="26.2" y2="105.7" gradientTransform="translate(302.3 62) rotate(80)" xlink:href="#New_Gradient_Swatch_copy"/>
    <linearGradient id="New_Gradient_Swatch_copy39" data-name="New Gradient Swatch copy" x1="11.8" y1="115.8" x2="25.1" y2="115.8" gradientTransform="translate(316.6 82.1) rotate(85.9)" xlink:href="#New_Gradient_Swatch_copy"/>
    <linearGradient id="New_Gradient_Swatch_copy40" data-name="New Gradient Swatch copy" x1="11.7" y1="125.9" x2="24.9" y2="125.9" gradientTransform="translate(328.8 103.6) rotate(91.8)" xlink:href="#New_Gradient_Swatch_copy"/>
    <linearGradient id="New_Gradient_Swatch_copy41" data-name="New Gradient Swatch copy" x1="12.6" y1="135.9" x2="25.8" y2="135.9" gradientTransform="translate(338.8 126.3) rotate(97.7)" xlink:href="#New_Gradient_Swatch_copy"/>
    <linearGradient id="New_Gradient_Swatch_copy42" data-name="New Gradient Swatch copy" x1="14.5" y1="145.8" x2="27.8" y2="145.8" gradientTransform="translate(346.3 149.8) rotate(103.6)" xlink:href="#New_Gradient_Swatch_copy"/>
    <linearGradient id="New_Gradient_Swatch_copy43" data-name="New Gradient Swatch copy" x1="17.5" y1="155.5" x2="30.7" y2="155.5" gradientTransform="translate(351.4 174) rotate(109.5)" xlink:href="#New_Gradient_Swatch_copy"/>
    <linearGradient id="New_Gradient_Swatch_copy44" data-name="New Gradient Swatch copy" x1="21.4" y1="164.8" x2="34.6" y2="164.8" gradientTransform="translate(354 198.6) rotate(115.4)" xlink:href="#New_Gradient_Swatch_copy"/>
    <linearGradient id="New_Gradient_Swatch_copy45" data-name="New Gradient Swatch copy" x1="26.3" y1="173.7" x2="39.5" y2="173.7" gradientTransform="translate(354 223.4) rotate(121.3)" xlink:href="#New_Gradient_Swatch_copy"/>
    <linearGradient id="New_Gradient_Swatch_copy46" data-name="New Gradient Swatch copy" x1="32" y1="182" x2="45.3" y2="182" gradientTransform="translate(351.5 248) rotate(127.2)" xlink:href="#New_Gradient_Swatch_copy"/>
    <linearGradient id="New_Gradient_Swatch_copy47" data-name="New Gradient Swatch copy" x1="38.6" y1="189.6" x2="51.8" y2="189.6" gradientTransform="translate(346.4 272.2) rotate(133.1)" xlink:href="#New_Gradient_Swatch_copy"/>
    <linearGradient id="New_Gradient_Swatch_copy48" data-name="New Gradient Swatch copy" x1="45.9" y1="196.6" x2="59.1" y2="196.6" gradientTransform="translate(338.9 295.8) rotate(139)" xlink:href="#New_Gradient_Swatch_copy"/>
    <linearGradient id="New_Gradient_Swatch_copy49" data-name="New Gradient Swatch copy" x1="53.9" y1="202.8" x2="67.2" y2="202.8" gradientTransform="translate(329.1 318.4) rotate(144.9)" xlink:href="#New_Gradient_Swatch_copy"/>
  </defs>
  <g>
    <path class="st51" d="M5.7,116.6v-1.2c1,0,1.9.3,2.6,1,.7.7,1,1.5,1.1,2.6,0,1.3-.3,2.3-1.1,3s-2,1.2-3.5,1.3c-1.4,0-2.5-.2-3.4-.9-.9-.7-1.3-1.7-1.4-2.9,0-1,.2-1.8.6-2.5.5-.7,1.2-1.1,2.1-1.2v1.2c-.5.1-1,.4-1.2.9-.3.4-.4,1-.4,1.7,0,.9.4,1.6,1.1,2,.7.5,1.6.7,2.7.6,1.1,0,1.9-.4,2.6-.9.6-.6.9-1.3.9-2.1,0-.7-.3-1.3-.8-1.8s-1.1-.7-1.8-.6Z"/>
    <path class="st51" d="M9.1,107.9l-8.9-.7.5-6.3h1.1c0,0-.4,5.2-.4,5.2l2.6.2.4-4.7h1c0,0-.4,4.8-.4,4.8l3,.2.4-5.2h1.1c0,0-.5,6.5-.5,6.5Z"/>
    <path class="st51" d="M10.7,94.2l-8.7-1.8.3-1.2,7.6,1.6.9-4.3,1.1.2-1.2,5.5Z"/>
    <path class="st51" d="M13.8,82l-8.4-2.9,2.1-6,1,.4-1.7,4.9,2.5.9,1.6-4.5,1,.3-1.6,4.5,2.8,1,1.7-5,1.1.4-2.1,6.1Z"/>
    <path class="st51" d="M18.8,69.1l-7.9-4,1.6-3.2c.4-.8.9-1.4,1.4-1.6s1.1-.2,1.8.1c.4.2.7.5.9.8.2.3.3.7.2,1.2.3-.4.7-.7,1.2-.8.5,0,1,0,1.5.2.7.4,1.2.9,1.4,1.6.2.7,0,1.5-.3,2.3l-1.7,3.4ZM14.7,65.7l1-1.9c.3-.6.4-1,.3-1.4,0-.4-.3-.7-.7-.9-.4-.2-.8-.2-1.1,0-.3.2-.6.5-.9,1l-1,2,2.4,1.2ZM18.3,67.6l1.1-2.2c.3-.5.4-1,.3-1.4,0-.4-.4-.7-.8-1-.5-.2-.9-.3-1.2,0s-.7.6-1,1.2l-1,2.1,2.8,1.4Z"/>
    <path class="st51" d="M18.2,51.8l2-2.8c.3-.5.6-.8.8-1,.2-.2.4-.3.6-.4.4-.2.8-.3,1.2-.2.4,0,.8.2,1.2.5.4.3.7.6.8,1,.2.4.2.8.1,1.2.3-.2.5-.3.8-.3.3,0,.6.2,1.1.4l1.3.7c.3.2.5.3.7.3.2,0,.3,0,.4,0h.2c0,.1-.8,1.3-.8,1.3-.2,0-.6-.2-1.1-.5,0,0,0,0,0,0l-1-.6c-.5-.3-.9-.4-1.2-.3-.3,0-.6.5-1.1,1.2l-1.1,1.6,3.1,2.2-.7,1-7.3-5ZM19.8,51.4l2.5,1.7,1.2-1.7c.4-.6.6-1.1.6-1.5s-.3-.7-.7-1.1c-.4-.3-.8-.4-1.2-.3-.3.1-.7.5-1.2,1.1l-1.2,1.7Z"/>
    <path class="st51" d="M33.3,46.2l-4.4-8.4.9-1,8.8,3.5-.9,1-2.6-1.1-2.3,2.6,1.3,2.5-.8.9ZM32.3,41.9l1.9-2.1-3.8-1.6,2,3.7Z"/>
    <path class="st51" d="M44.8,34.6l-5.1-5.9-2.1,1.8-.7-.8,5.2-4.5.7.8-2.1,1.8,5.1,5.9-.9.8Z"/>
    <path class="st51" d="M53.4,27.8l-5.1-7.3,1-.7,5.1,7.3-1,.7Z"/>
    <path class="st51" d="M61,22.8l-4.2-7.8,1.2-.6,6.7,3.7c.1,0,.3.2.4.2.1,0,.2.2.3.2l-3.4-6.3,1-.5,4.2,7.8-1.2.6-6.8-3.8c-.1,0-.2-.1-.3-.2,0,0-.2-.1-.3-.2l3.4,6.3-1,.5Z"/>
    <path class="st51" d="M80.2,12.9c-.2.6-.5,1.1-.8,1.5-.4.4-.9.7-1.5.9-1.1.4-2.2.3-3.2-.2-1-.6-1.7-1.5-2.2-2.8-.5-1.4-.5-2.6,0-3.6.4-1.1,1.3-1.8,2.5-2.3,1-.3,1.8-.4,2.6-.1.8.3,1.4.8,1.8,1.6l-1.1.4c-.3-.5-.7-.9-1.2-1-.5-.2-1.1-.1-1.7.1-.9.3-1.5.9-1.8,1.7-.3.8-.2,1.7.2,2.8.4,1.1.9,1.8,1.7,2.2.7.4,1.5.5,2.4.2.8-.3,1.3-.8,1.6-1.4.3-.7.3-1.4,0-2.2h0c0-.1-2.6.8-2.6.8l-.3-.9,3.7-1.3,1.6,4.5-.7.3-.7-1Z"/>
    <path class="st51" d="M97.3,7.6h1.1c.1.3.4.6.7.8.3.2.7.3,1.2.2.6,0,1-.3,1.3-.7.3-.4.4-.9.4-1.4,0-.6-.3-1-.7-1.3-.4-.3-.9-.4-1.4-.3-.3,0-.6.1-.9.3-.3.2-.5.4-.6.7h-1c0,.1.1-4.5.1-4.5l4.5-.6v1c.1,0-3.6.5-3.6.5v2.3c.1-.2.4-.4.6-.5.3-.1.6-.2.9-.3.9-.1,1.6,0,2.2.5.6.4.9,1.1,1.1,2,.1.9,0,1.7-.6,2.3-.5.6-1.2,1-2.1,1.1-.8.1-1.5,0-2.1-.4-.6-.4-1-.9-1.1-1.7Z"/>
    <path class="st51" d="M110.2,4.5c0-1.5.2-2.6.7-3.3.5-.8,1.2-1.2,2.2-1.2,1,0,1.7.4,2.2,1.1.5.7.8,1.9.8,3.3,0,1.5-.2,2.6-.7,3.3-.5.8-1.2,1.1-2.2,1.2-1,0-1.7-.3-2.2-1.1-.5-.7-.8-1.8-.8-3.3ZM111.4,4.5c0,1.2.2,2.1.5,2.6.3.5.8.8,1.4.8.6,0,1.1-.3,1.3-.8.3-.5.4-1.4.4-2.6,0-1.2-.2-2.1-.5-2.6-.3-.5-.8-.8-1.4-.8-.6,0-1.1.3-1.3.8-.3.6-.4,1.4-.4,2.6Z"/>
    <path class="st51" d="M136.2,11l-1.2-.2.7-3.5-2.1-5.9,1.5.3,1.5,4.6,3.2-3.6,1.4.3-4.2,4.5-.7,3.6Z"/>
    <path class="st51" d="M145.7,13.5l2.9-8.4,6,2.1-.4,1-4.9-1.7-.9,2.5,4.5,1.6-.3,1-4.5-1.6-1,2.8,5,1.7-.4,1-6.1-2.1Z"/>
    <path class="st51" d="M157.7,18.2l7-6.4,1.2.6-1.1,9.4-1.2-.6.4-2.8-3.1-1.6-2,1.9-1.1-.6ZM161.7,16l2.5,1.3.6-4.1-3,2.9Z"/>
    <path class="st51" d="M175.7,17.9l2.8,2c.5.3.8.6,1,.8s.3.4.4.6c.2.4.3.8.2,1.2s-.2.8-.5,1.2c-.3.4-.6.7-1,.8-.4.2-.8.2-1.2.1.2.3.3.6.3.8,0,.3-.2.6-.4,1.1l-.7,1.3c-.2.3-.3.5-.3.7,0,.2,0,.3,0,.4v.2c-.1,0-1.3-.8-1.3-.8,0-.2.2-.6.5-1.1,0,0,0,0,0,0l.6-1c.3-.5.4-.9.3-1.2s-.5-.6-1.2-1.1l-1.6-1.1-2.2,3.1-1-.7,5-7.3ZM176,19.5l-1.7,2.5,1.7,1.2c.6.4,1.1.6,1.5.6s.7-.3,1.1-.7c.3-.4.4-.8.3-1.2-.1-.3-.5-.7-1.1-1.2l-1.7-1.2Z"/>
    <path class="st51" d="M183.6,31.3l.9.8c-.4.5-.6,1-.6,1.6,0,.6.3,1.1.9,1.5.5.5,1,.7,1.5.8s.9-.1,1.2-.5c.5-.5.3-1.4-.6-2.7,0,0,0-.1-.1-.2-.7-1-1.1-1.8-1.1-2.3,0-.5.1-1,.6-1.5.5-.6,1.2-.9,1.9-.8s1.5.4,2.2,1c.7.7,1.1,1.4,1.2,2.1,0,.8-.2,1.5-.8,2.1l-.9-.8c.4-.5.5-.9.5-1.4s-.3-.9-.8-1.4c-.4-.4-.9-.6-1.3-.7-.4,0-.8,0-1.1.4-.5.5-.3,1.4.6,2.6.1.2.2.3.3.4,0,0,0,0,0,.1.6.8.9,1.4.9,1.8,0,.3,0,.6,0,.9-.1.3-.3.6-.5.8-.6.6-1.3.9-2.1.9-.8,0-1.6-.4-2.4-1.1-.8-.7-1.2-1.5-1.3-2.3,0-.8.2-1.6.9-2.4Z"/>
    <path class="st51" d="M197.9,50.8l7.2-5.3.7,1-7.2,5.3-.7-1Z"/>
    <path class="st51" d="M203,58.2l7.7-4.4.7,1.1-3.5,6.8c0,.2-.2.3-.2.4,0,.1-.1.2-.2.3l6.3-3.6.6,1-7.7,4.4-.7-1.1,3.6-7c0-.1.1-.2.2-.3,0-.1.1-.2.2-.3l-6.3,3.6-.6-1Z"/>
    <path class="st51" d="M213.3,80.1l8.5-2.5.3,1.2-3.5,1,1.3,4.4,3.5-1,.3,1.2-8.5,2.5-.3-1.2,4-1.2-1.3-4.4-4,1.2-.3-1.2Z"/>
    <path class="st51" d="M217,94.5l8.8-1.6.2,1.2-8.8,1.6-.2-1.2Z"/>
    <path class="st51" d="M227.2,102.9l.2,3.4c0,.6,0,1,0,1.2,0,.3,0,.5-.2.7-.2.4-.4.7-.8.9-.4.2-.8.3-1.3.4-.5,0-.9,0-1.2-.2-.4-.2-.6-.5-.9-.9,0,.4-.2.6-.4.8-.2.2-.6.3-1.1.3l-1.5.2c-.3,0-.5,0-.7.2s-.3.2-.3.3h-.2s0-1.4,0-1.4c.2-.1.6-.2,1.2-.3,0,0,0,0,0,0h1.2c.6-.2,1-.4,1.1-.6.2-.2.2-.8.2-1.6v-2c-.1,0-3.9.2-3.9.2v-1.2c0,0,8.8-.6,8.8-.6ZM226.2,104.2l-3,.2v2.1c.2.7.3,1.3.6,1.6s.7.4,1.2.4c.5,0,.9-.2,1.1-.5.2-.3.3-.8.2-1.6v-2.1Z"/>
    <path class="st51" d="M218.7,117.6l8.9.6-.4,6.3h-1.1c0,0,.3-5.2.3-5.2l-2.7-.2-.3,4.7h-1c0,0,.3-4.8.3-4.8l-3-.2-.3,5.2h-1.1c0,0,.4-6.5.4-6.5Z"/>
  </g>
  <g>
    <path class="st51" d="M65.1,121.3c4.9,3.4,11.1,5.1,18.8,5.1,9.3,0,16.4-2.2,21.5-6.6,1.8-1.6,3.3-3.4,4.5-5.4-5-6.2-8-14-8-22.6s.4-5.8,1-8.5c-3.4-1.9-7.5-2.9-12.3-2.9-2.9,0-5.4.3-7.6.7-2.2.5-4.2,1.3-6.1,2.4l-1.4.8,2.4-12h29.6v-15h-42.2l-6.5,36.6,17.5,1.5c1-1.2,2.2-2.1,3.5-2.7,1.5-.7,3.1-1.1,4.8-1.1,2.9,0,5.3,1,7.1,2.9,1.8,1.9,2.7,4.5,2.7,7.6,0,3-.9,5.5-2.8,7.3-1.9,1.8-4.4,2.7-7.6,2.7-2.4,0-4.4-.6-6.1-1.7-1.5-1-2.7-2.6-3.5-4.5l-18.5,1.8c1.5,5.8,4.5,10.3,9.1,13.6Z"/>
    <path class="st51" d="M112.9,101.6c0-6.4-2-11.4-6.1-15.3-.8-.8-1.7-1.4-2.6-2.1-.6,2.5-.9,5-.9,7.7,0,8,2.7,15.3,7.3,21.1,1.6-3.3,2.4-7,2.4-11.4Z"/>
  </g>
  <path class="st0" d="M55,107l19.9-2c.8,2.1,1.9,3.6,3.5,4.7s3.4,1.6,5.7,1.6,5.3-.8,7-2.5,2.6-3.9,2.6-6.7-.8-5.3-2.5-7-3.9-2.7-6.6-2.7-3.2.3-4.5,1-2.5,1.6-3.5,2.8l-18.7-1.6,6.8-38.1h43.6v16.5h-29.7l-2,9.8c1.9-1.1,4-1.9,6.3-2.4s4.9-.8,7.8-.8c6.9,0,12.5,2,16.8,6,4.2,4,6.4,9.3,6.4,15.9s-2.6,14.3-7.9,18.8c-5.3,4.5-12.6,6.8-22,6.8s-14.2-1.8-19.2-5.3-8.2-8.5-9.6-14.9Z"/>
  <g>
    <path class="st51" d="M112.9,101.6c0-6.4-2-11.4-6.1-15.3-.8-.8-1.7-1.4-2.6-2.1-.6,2.5-.9,5-.9,7.7,0,8,2.7,15.3,7.3,21.1,1.6-3.3,2.4-7,2.4-11.4Z"/>
    <path class="st51" d="M137.8,126.5c19,0,34.5-15.5,34.5-34.5s-15.5-34.5-34.5-34.5-29.2,10.7-33.3,25.3c1.2.7,2.3,1.6,3.3,2.5,4.4,4.2,6.6,9.7,6.6,16.4,0,4.8-.9,9.1-2.8,12.7,6.3,7.4,15.7,12.1,26.2,12.1ZM137.8,72.9c10.5,0,19,8.5,19,19s-8.5,19-19,19-19-8.5-19-19,8.5-19,19-19Z"/>
  </g>
  <path class="st0" d="M137.8,73.7c10.1,0,18.3,8.2,18.3,18.3s-8.2,18.3-18.3,18.3-18.3-8.2-18.3-18.3,8.2-18.3,18.3-18.3M137.8,56.7c-19.5,0-35.3,15.8-35.3,35.3s15.8,35.3,35.3,35.3,35.3-15.8,35.3-35.3-15.8-35.3-35.3-35.3h0Z"/>
  <g>
    <path class="st51" d="M85.8,144.9h-1v-2.9l-2.7-4.4h1.2l2,3.5,1.9-3.5h1.2l-2.6,4.3v3Z"/>
    <path class="st51" d="M91.1,144.9v-7.3h5.2v.9h-4.2v2.2h3.9v.9h-3.9v2.5h4.3v.9h-5.3Z"/>
    <path class="st51" d="M98.9,144.9l2.7-7.3h1.1l2.7,7.3h-1.1l-.8-2.2h-2.9l-.8,2.2h-1ZM101,141.9h2.3l-1.1-3.2-1.1,3.2Z"/>
    <path class="st51" d="M108.2,137.6h2.8c.5,0,.8,0,1,0s.4.1.6.2c.3.2.5.4.7.7.2.3.2.7.2,1.1s0,.7-.3,1c-.2.3-.4.5-.8.7.3,0,.5.2.6.4.1.2.2.5.2,1v1.2c.1.3.1.5.2.6,0,.1.1.2.2.3v.2h-1.1c0-.2-.2-.5-.2-1h0s0-1,0-1c0-.5-.1-.8-.3-1-.2-.1-.6-.2-1.3-.2h-1.6v3.1h-1v-7.3ZM109.2,138.4v2.5h1.7c.6,0,1,0,1.3-.3s.4-.5.4-1-.1-.7-.4-.9c-.2-.2-.7-.3-1.3-.3h-1.7Z"/>
    <path class="st51" d="M116.7,142.5h1c0,.5.2,1,.5,1.3.3.3.8.5,1.4.5s1-.1,1.3-.4.5-.6.5-1-.6-1-1.8-1.3c0,0-.1,0-.2,0-1-.2-1.7-.5-2-.8-.3-.3-.5-.7-.5-1.2s.2-1.2.7-1.6c.5-.4,1.1-.6,1.9-.6s1.4.2,1.9.6c.5.4.7,1,.7,1.7h-1c0-.5-.2-.9-.5-1.1-.3-.3-.7-.4-1.2-.4s-.9.1-1.2.3-.4.5-.4.9c0,.6.6,1,1.8,1.3.2,0,.3,0,.4,0,0,0,0,0,.1,0,.8.2,1.3.4,1.6.6.2.2.3.4.4.6.1.2.2.5.2.8,0,.7-.3,1.3-.8,1.7-.5.4-1.2.6-2.1.6s-1.6-.2-2.1-.7c-.5-.4-.8-1.1-.8-1.9Z"/>
    <path class="st51" d="M130.1,141.3c0-1.2.3-2.2.9-2.8.6-.7,1.5-1,2.6-1s1.9.3,2.5,1c.6.7.9,1.6.9,2.8s-.3,2.2-.9,2.8c-.6.7-1.5,1-2.5,1s-1.9-.3-2.6-1c-.6-.7-.9-1.6-.9-2.8ZM131.2,141.3c0,.9.2,1.7.6,2.2.4.5,1,.8,1.8.8s1.4-.3,1.8-.8.6-1.3.6-2.2-.2-1.7-.6-2.2c-.4-.5-1-.8-1.8-.8s-1.4.3-1.8.8c-.4.5-.6,1.3-.6,2.2Z"/>
    <path class="st51" d="M140.4,144.9v-7.3h4.9v.9h-3.9v2.2h3.4v.9h-3.4v3.3h-1Z"/>
  </g>
  <g>
    <polygon class="st51" points="79.2 196.2 80.1 196.2 80.1 198.2 81.4 198.2 81.4 196.2 82.3 196.2 82.3 201.2 81.4 201.2 81.4 198.9 80.1 198.9 80.1 201.2 79.2 201.2 79.2 196.2"/>
    <rect class="st51" x="83" y="196.2" width=".9" height="5"/>
    <g>
      <path class="st51" d="M84.6,196.2h1.7c1,0,1.4.4,1.4,1.3s-.2,1-.7,1.1c.7.2.7.5.7,1.2v.7c0,.3,0,.6.3.7h-1.1c0-.2,0-.5,0-.8v-.5s0-.1,0-.1c0-.7-.3-.8-.9-.8h-.3v2.2h-.9v-5ZM86,198.3c.5,0,.7-.2.7-.7s-.2-.7-.8-.7h-.5v1.4h.5Z"/>
      <polygon class="st51" points="88.2 196.2 90.8 196.2 90.8 197 89.1 197 89.1 198.2 90.7 198.2 90.7 199 89.1 199 89.1 200.4 90.8 200.4 90.8 201.2 88.2 201.2 88.2 196.2"/>
      <path class="st51" d="M93.5,196.2h1.3l1.1,5h-1l-.2-1.3h-1.1l-.2,1.3h-1l1.1-5ZM94.6,199.2l-.4-2.1-.4,2.1h.8Z"/>
      <path class="st51" d="M97.1,199.4v.3c0,.5,0,.8.5.8s.6-.2.6-.6-.2-.5-.6-.8l-.5-.3c-.6-.4-1-.7-1-1.4s.5-1.4,1.4-1.4,1.4.5,1.4,1.5,0,.1,0,.2h-.9c0-.7-.2-.9-.6-.9s-.5.2-.5.5.2.5.6.7l.5.3c.7.4.9.8.9,1.5s-.5,1.4-1.5,1.4-1.5-.5-1.5-1.6,0-.2,0-.3h.9Z"/>
      <path class="st51" d="M100.5,199.4v.3c0,.5,0,.8.5.8s.6-.2.6-.6-.2-.5-.6-.8l-.5-.3c-.6-.4-1-.7-1-1.4s.5-1.4,1.4-1.4,1.4.5,1.4,1.5,0,.1,0,.2h-.9c0-.7-.2-.9-.6-.9s-.5.2-.5.5.2.5.6.7l.5.3c.7.4.9.8.9,1.5s-.5,1.4-1.5,1.4-1.5-.5-1.5-1.6,0-.2,0-.3h.9Z"/>
      <path class="st51" d="M103.4,196.7c.3-.5.7-.6,1.3-.6s1,.2,1.3.6c.2.4.3,1,.3,2s0,1.6-.3,2c-.3.5-.7.6-1.3.6s-1-.2-1.3-.6c-.2-.3-.3-1-.3-2s0-1.7.3-2M104.7,200.6c.6,0,.7-.6.7-1.9s0-1.9-.7-1.9-.7.6-.7,1.9,0,1.9.7,1.9"/>
      <path class="st51" d="M109.8,199.4c0,0,0,.1,0,.2,0,1.2-.5,1.7-1.5,1.7s-.8-.1-1.1-.4c-.4-.4-.5-1.2-.5-2.3s0-1.6.3-1.9c.3-.5.7-.7,1.3-.7,1,0,1.5.5,1.5,1.7h-.9c0-.7-.2-.9-.5-.9-.6,0-.6.5-.6,1.8s0,1.9.6,1.9.6-.3.6-1.1h0c0,0,.9,0,.9,0Z"/>
      <rect class="st51" x="110.3" y="196.2" width=".9" height="5"/>
      <path class="st51" d="M112.7,196.2h1.3l1.1,5h-1l-.2-1.3h-1.1l-.2,1.3h-1l1.1-5ZM113.7,199.2l-.4-2.1-.4,2.1h.8Z"/>
      <polygon class="st51" points="115.7 197 114.7 197 114.7 196.2 117.7 196.2 117.7 197 116.7 197 116.7 201.2 115.7 201.2 115.7 197"/>
      <rect class="st51" x="118" y="196.2" width=".9" height="5"/>
      <path class="st51" d="M119.8,196.7c.3-.5.7-.6,1.3-.6s1,.2,1.3.6c.2.4.3,1,.3,2s0,1.6-.3,2c-.3.5-.7.6-1.3.6s-1-.2-1.3-.6c-.2-.3-.3-1-.3-2s0-1.7.3-2M121.2,200.6c.6,0,.7-.6.7-1.9s0-1.9-.7-1.9-.7.6-.7,1.9,0,1.9.7,1.9"/>
      <polygon class="st51" points="123.4 196.2 124.3 196.2 125.6 199.7 125.6 196.2 126.5 196.2 126.5 201.2 125.5 201.2 124.2 197.7 124.2 201.2 123.4 201.2 123.4 196.2"/>
      <polygon class="st51" points="128.6 196.2 131.2 196.2 131.2 197 129.5 197 129.5 198.2 131.1 198.2 131.1 199 129.5 199 129.5 200.4 131.2 200.4 131.2 201.2 128.6 201.2 128.6 196.2"/>
      <path class="st51" d="M132.7,196.2v3.4c0,.7.1,1,.6,1s.6-.3.6-1v-3.4h.9v3.5c0,.5,0,.8-.2,1.1-.3.3-.7.5-1.3.5-1.2,0-1.6-.5-1.6-1.7v-3.5h.9Z"/>
      <path class="st51" d="M135.5,196.2h1.7c1,0,1.4.4,1.4,1.3s-.2,1-.7,1.1c.7.2.7.5.7,1.2v.7c0,.3,0,.6.3.7h-1.1c0-.2,0-.5,0-.8v-.5s0-.1,0-.1c0-.7-.3-.8-.9-.8h-.3v2.2h-.9v-5ZM136.9,198.3c.5,0,.7-.2.7-.7s-.2-.7-.8-.7h-.5v1.4h.5Z"/>
      <path class="st51" d="M139.4,196.7c.3-.5.7-.6,1.3-.6s1,.2,1.3.6c.2.4.3,1,.3,2s0,1.6-.3,2c-.3.5-.7.6-1.3.6s-1-.2-1.3-.6c-.2-.3-.3-1-.3-2s0-1.7.3-2M140.7,200.6c.6,0,.7-.6.7-1.9s0-1.9-.7-1.9-.7.6-.7,1.9,0,1.9.7,1.9"/>
      <path class="st51" d="M142.9,196.2h1.6c1,0,1.4.4,1.4,1.4s-.5,1.5-1.4,1.5h-.7v2.1h-.9v-5ZM144.2,198.4c.6,0,.8-.2.8-.8s-.2-.7-.8-.7h-.4v1.5h.4Z"/>
      <polygon class="st51" points="146.3 196.2 148.9 196.2 148.9 197 147.3 197 147.3 198.2 148.8 198.2 148.8 199 147.3 199 147.3 200.4 148.9 200.4 148.9 201.2 146.3 201.2 146.3 196.2"/>
      <path class="st51" d="M148.3,178.8c.4,0,.6-.4.6-.7h0c0,0,0,0,0,0v-8.6c0-6.4-4.2-11.4-10.9-11.4s-7.8,2.1-9.6,5.3c-1,1.9-1.4,4.5-1.4,7.4v1.7h-2.1v-1.7c0-2.9-.4-5.5-1.4-7.4-1.7-3.2-5.1-5.3-9.6-5.3s-6,1.2-8,3.2c-1.9,1.9-2.9,4.7-2.9,7.8h0s0,0,0,0c0,.4.3.7.7.7h5.9c.4,0,.7-.3.7-.7h0c0,0,0,0,0,0,.1-1.6.8-3.7,3.6-3.7s3.6,1.3,3.6,3.6v3.4h-3.6c-6.7,0-10.9,4.9-10.9,11.3,0,0,0,0,0,0,.2,6.2,4.3,10.9,10.9,10.9s7.8-2.1,9.6-5.3c1-1.9,1.4-4.5,1.4-7.4v-3h2.1v3c0,2.9.4,5.5,1.4,7.4,1.7,3.2,5.1,5.3,9.6,5.3s6-1.2,8-3.2c1.9-1.9,2.9-4.7,2.9-7.8h0c0-.5-.3-.8-.7-.8h-5.9c-.4,0-.7.3-.7.7h0c0,0,0,0,0,0-.1,1.6-.8,3.7-3.6,3.7s-3.6-1.3-3.6-3.6v-4.7h13.9ZM134.4,169.5c0-2.7,1.4-4.2,3.6-4.2s3.6,1.4,3.6,4.2v2.8h-7.2v-2.8ZM117.6,183c0,2.7-1.4,4.2-3.6,4.2s-3.4-1.3-3.6-3.8v-.4c0-2.7,1.4-4.2,3.6-4.2h3.6v4.2Z"/>
      <path class="st51" d="M105.5,172.3h-4.4v-12.7h0v-.4c0-.4-.3-.7-.7-.7h-5.9c-.4,0-.7.3-.7.7v1.1h0v12h-7.2v-13.2c0-.4-.3-.7-.7-.7h-5.9c-.4,0-.7.3-.7.7v1.1h0v33.1c0,.4.3.7.7.7h5.9c.4,0,.7-.3.7-.7v-14.5h7.2v13.2h0v1.3c0,.4.3.7.7.7h5.9c.4,0,.7-.3.7-.7v-.5h0v-14c.6-1.9,1.6-3.7,3-5.1.5-.5.9-.9,1.5-1.3"/>
    </g>
  </g>
  <g>
    <polygon class="st50" points="59.7 187.6 60.2 186.3 58.8 186.4 60 185.5 58.8 184.7 60.2 184.8 59.7 183.4 60.9 184.3 61.2 182.9 61.7 184.3 62.8 183.4 62.3 184.8 63.7 184.7 62.6 185.5 63.7 186.3 62.3 186.3 62.8 187.6 61.7 186.8 61.3 188.1 60.9 186.8 59.7 187.6"/>
    <polygon class="st4" points="52.4 181.7 53 180.5 51.5 180.4 52.8 179.7 51.7 178.8 53.1 178.9 52.8 177.6 53.8 178.5 54.3 177.2 54.6 178.6 55.8 177.9 55.2 179.1 56.6 179.2 55.4 179.9 56.5 180.8 55.1 180.7 55.4 182 54.4 181.1 53.8 182.4 53.6 181 52.4 181.7"/>
    <polygon class="st5" points="45.6 175.1 46.4 173.9 45 173.6 46.3 173.1 45.3 172.1 46.7 172.4 46.5 171 47.4 172.1 48.1 170.8 48.2 172.2 49.5 171.6 48.7 172.8 50.1 173.1 48.8 173.6 49.8 174.6 48.4 174.3 48.6 175.7 47.7 174.6 47 175.9 46.9 174.5 45.6 175.1"/>
    <polygon class="st2" points="39.6 167.8 40.5 166.7 39.1 166.3 40.5 165.9 39.6 164.8 40.9 165.2 40.9 163.8 41.7 165 42.5 163.8 42.5 165.2 43.8 164.7 42.9 165.8 44.3 166.2 42.9 166.7 43.8 167.8 42.5 167.3 42.5 168.7 41.7 167.6 40.9 168.7 41 167.3 39.6 167.8"/>
    <polygon class="st3" points="34.4 159.9 35.4 158.9 34 158.4 35.4 158.1 34.7 156.9 36 157.5 36.1 156.1 36.7 157.3 37.7 156.2 37.5 157.6 38.9 157.3 37.9 158.3 39.2 158.9 37.8 159.1 38.6 160.3 37.3 159.7 37.2 161.2 36.5 159.9 35.6 161 35.8 159.6 34.4 159.9"/>
    <polygon class="st8" points="30 151.6 31.1 150.6 29.8 150 31.2 149.8 30.6 148.6 31.8 149.3 32 147.9 32.6 149.2 33.6 148.2 33.3 149.6 34.7 149.4 33.6 150.3 34.9 151 33.5 151.1 34.1 152.4 32.9 151.7 32.7 153.1 32.1 151.8 31.1 152.8 31.4 151.4 30 151.6"/>
    <polygon class="st9" points="26.5 142.8 27.6 142 26.5 141.2 27.9 141.2 27.4 139.9 28.5 140.7 28.9 139.4 29.3 140.7 30.4 139.8 30 141.2 31.4 141.1 30.2 141.9 31.4 142.7 30 142.7 30.5 144 29.4 143.2 29 144.6 28.6 143.2 27.4 144.1 27.9 142.7 26.5 142.8"/>
    <polygon class="st6" points="23.9 133.7 25.1 133 24 132.1 25.4 132.3 25.1 130.9 26.1 131.9 26.7 130.5 26.9 131.9 28.1 131.2 27.5 132.5 29 132.5 27.7 133.2 28.8 134.1 27.4 134 27.8 135.4 26.7 134.4 26.2 135.7 25.9 134.3 24.7 135.1 25.3 133.8 23.9 133.7"/>
    <polygon class="st7" points="22.3 124.4 23.6 123.8 22.6 122.8 23.9 123.1 23.7 121.7 24.7 122.8 25.3 121.5 25.5 122.9 26.7 122.3 26 123.5 27.4 123.8 26.1 124.3 27.1 125.3 25.7 125 25.9 126.4 25 125.4 24.3 126.6 24.2 125.2 22.9 125.9 23.7 124.6 22.3 124.4"/>
    <polygon class="st1" points="21.6 115 22.9 114.5 22 113.4 23.4 113.9 23.3 112.5 24.2 113.6 24.9 112.4 24.9 113.9 26.3 113.3 25.4 114.5 26.8 114.9 25.4 115.3 26.3 116.4 25 116 25 117.4 24.2 116.2 23.4 117.4 23.4 116 22.1 116.5 23 115.3 21.6 115"/>
    <polygon class="st10" points="21.9 105.5 23.3 105.2 22.5 104 23.8 104.6 23.9 103.2 24.6 104.4 25.5 103.3 25.3 104.8 26.7 104.4 25.7 105.4 27.1 106 25.7 106.2 26.4 107.4 25.1 106.9 25.1 108.3 24.4 107 23.5 108.1 23.6 106.7 22.2 107.1 23.2 106 21.9 105.5"/>
    <polygon class="st12" points="23.1 96.2 24.6 96 23.9 94.7 25.1 95.5 25.4 94.1 25.9 95.4 26.9 94.4 26.6 95.7 28.1 95.5 27 96.5 28.3 97.1 26.8 97.3 27.5 98.5 26.3 97.8 26 99.2 25.5 97.9 24.5 98.9 24.8 97.5 23.3 97.8 24.4 96.8 23.1 96.2"/>
    <polygon class="st11" points="25.4 87 26.8 87 26.3 85.6 27.4 86.5 27.8 85.1 28.2 86.5 29.3 85.6 28.9 86.9 30.3 86.8 29.2 87.7 30.4 88.5 28.9 88.5 29.4 89.8 28.3 88.9 27.9 90.3 27.5 89 26.4 89.9 26.8 88.5 25.4 88.6 26.6 87.7 25.4 87"/>
    <polygon class="st20" points="28.5 78.1 29.9 78.2 29.6 76.8 30.6 77.8 31.1 76.5 31.4 77.9 32.6 77.1 32 78.4 33.5 78.4 32.2 79.2 33.3 80 31.9 79.9 32.3 81.3 31.2 80.3 30.7 81.6 30.4 80.3 29.2 81 29.8 79.7 28.4 79.7 29.6 79 28.5 78.1"/>
    <polygon class="st22" points="32.6 69.5 34 69.8 33.7 68.4 34.7 69.5 35.3 68.2 35.5 69.6 36.8 69 36 70.2 37.4 70.4 36.1 71 37.2 72 35.8 71.7 36 73.1 35 72.1 34.4 73.3 34.3 71.9 33 72.6 33.7 71.3 32.3 71.1 33.6 70.5 32.6 69.5"/>
    <polygon class="st21" points="37.5 61.5 38.8 61.9 38.8 60.5 39.6 61.6 40.4 60.4 40.4 61.8 41.7 61.3 40.9 62.5 42.2 62.8 40.9 63.3 41.8 64.4 40.4 63.9 40.5 65.4 39.7 64.2 38.9 65.4 38.9 64 37.6 64.5 38.4 63.4 37 63 38.4 62.6 37.5 61.5"/>
    <polygon class="st23" points="43.2 53.9 44.5 54.5 44.6 53.1 45.3 54.3 46.2 53.2 46 54.6 47.4 54.2 46.5 55.3 47.8 55.8 46.4 56.1 47.2 57.3 45.9 56.7 45.8 58.1 45.1 56.9 44.2 58 44.4 56.6 43 57 43.9 55.9 42.6 55.4 44 55.1 43.2 53.9"/>
    <polygon class="st17" points="49.7 47 50.9 47.7 51.1 46.3 51.7 47.6 52.7 46.6 52.4 48 53.8 47.8 52.8 48.7 54 49.4 52.6 49.5 53.3 50.8 52 50.1 51.8 51.5 51.2 50.2 50.3 51.2 50.5 49.8 49.1 50 50.2 49.1 48.9 48.4 50.3 48.3 49.7 47"/>
    <polygon class="st19" points="56.8 40.8 58 41.7 58.3 40.3 58.8 41.6 59.9 40.7 59.4 42.1 60.9 42 59.7 42.8 60.9 43.6 59.5 43.6 60 44.9 58.9 44.1 58.5 45.5 58 44.1 57 45 57.4 43.7 56 43.8 57.1 42.9 55.9 42.2 57.3 42.1 56.8 40.8"/>
    <polygon class="st18" points="64.5 35.4 65.6 36.3 66.1 35 66.4 36.4 67.6 35.6 67 36.9 68.4 37 67.2 37.7 68.3 38.6 66.9 38.4 67.3 39.8 66.2 38.9 65.7 40.2 65.4 38.8 64.3 39.6 64.8 38.3 63.4 38.2 64.6 37.5 63.5 36.6 64.9 36.8 64.5 35.4"/>
    <polygon class="st16" points="72.8 30.8 73.8 31.8 74.4 30.6 74.5 32 75.8 31.3 75.1 32.5 76.5 32.7 75.2 33.3 76.2 34.3 74.8 34.1 75.1 35.5 74.1 34.4 73.5 35.7 73.3 34.3 72.1 34.9 72.8 33.7 71.4 33.5 72.7 32.9 71.6 31.9 73 32.2 72.8 30.8"/>
    <polygon class="st14" points="81.5 27.1 82.3 28.2 83.1 27 83.1 28.4 84.4 27.9 83.6 29 85 29.4 83.6 29.8 84.5 30.9 83.2 30.5 83.3 31.9 82.4 30.8 81.7 32 81.7 30.6 80.3 31.1 81.2 29.9 79.8 29.6 81.1 29.1 80.2 28 81.6 28.5 81.5 27.1"/>
    <polygon class="st15" points="90.5 24.2 91.2 25.5 92.1 24.3 92 25.7 93.3 25.4 92.4 26.4 93.7 26.9 92.4 27.2 93.1 28.4 91.8 27.8 91.8 29.3 91.1 28 90.2 29.2 90.3 27.8 88.9 28.1 89.9 27.1 88.5 26.6 89.9 26.3 89.1 25.1 90.4 25.7 90.5 24.2"/>
    <polygon class="st29" points="99.8 22.3 100.4 23.6 101.3 22.6 101.1 24 102.5 23.8 101.4 24.7 102.7 25.4 101.3 25.5 102 26.8 100.7 26.1 100.5 27.5 99.9 26.2 98.9 27.2 99.2 25.8 97.8 26.1 98.9 25.1 97.6 24.5 99 24.3 98.3 23.1 99.6 23.8 99.8 22.3"/>
    <polygon class="st28" points="109.2 21.4 109.6 22.8 110.7 21.9 110.3 23.2 111.7 23.1 110.6 24 111.8 24.7 110.4 24.7 110.9 26.1 109.7 25.2 109.4 26.6 108.9 25.3 107.9 26.2 108.3 24.8 106.8 24.9 108 24.1 106.8 23.3 108.2 23.3 107.7 22 108.8 22.8 109.2 21.4"/>
    <polygon class="st13" points="118.6 21.5 118.9 22.9 120.1 22.1 119.6 23.4 121 23.4 119.8 24.2 120.9 25 119.5 24.9 119.9 26.3 118.8 25.3 118.3 26.7 118 25.3 116.8 26.1 117.4 24.8 116 24.7 117.2 24 116 23.1 117.5 23.3 117.1 21.9 118.1 22.8 118.6 21.5"/>
    <polygon class="st26" points="128 22.5 128.2 23.9 129.4 23.2 128.8 24.5 130.2 24.7 128.9 25.3 129.9 26.3 128.5 26 128.8 27.4 127.8 26.4 127.2 27.6 127 26.2 125.8 26.9 126.4 25.7 125 25.5 126.3 24.9 125.3 23.9 126.7 24.2 126.4 22.8 127.4 23.8 128 22.5"/>
    <polygon class="st27" points="137.3 24.5 137.3 25.9 138.6 25.4 137.8 26.5 139.2 26.9 137.8 27.3 138.8 28.4 137.4 28 137.5 29.4 136.6 28.3 135.9 29.5 135.9 28.1 134.6 28.6 135.4 27.5 134 27.1 135.3 26.7 134.4 25.6 135.8 26 135.6 24.6 136.5 25.7 137.3 24.5"/>
    <polygon class="st24" points="146.2 27.4 146.1 28.8 147.5 28.4 146.6 29.5 147.9 30 146.5 30.3 147.3 31.5 146 30.9 146 32.4 145.2 31.2 144.4 32.3 144.5 30.9 143.1 31.3 144.1 30.2 142.7 29.7 144.1 29.4 143.3 28.2 144.6 28.8 144.6 27.3 145.4 28.6 146.2 27.4"/>
    <polygon class="st25" points="154.9 31.3 154.6 32.7 156 32.4 155 33.4 156.3 34 154.9 34.2 155.5 35.4 154.3 34.7 154.1 36.1 153.5 34.9 152.5 35.9 152.8 34.5 151.4 34.8 152.4 33.8 151.1 33.2 152.5 33 151.9 31.7 153.1 32.4 153.3 31 153.9 32.3 154.9 31.3"/>
    <polygon class="st37" points="163.1 36 162.7 37.3 164.1 37.2 163 38.1 164.2 38.8 162.8 38.9 163.3 40.2 162.1 39.4 161.8 40.7 161.3 39.4 160.3 40.3 160.7 39 159.2 39.1 160.4 38.2 159.2 37.5 160.6 37.4 160 36.1 161.2 36.9 161.5 35.6 162 36.9 163.1 36"/>
    <polygon class="st36" points="170.7 41.5 170.2 42.8 171.6 42.8 170.4 43.6 171.6 44.4 170.1 44.3 170.6 45.7 169.5 44.8 169 46.1 168.7 44.7 167.5 45.5 168 44.2 166.6 44.2 167.8 43.5 166.7 42.6 168.1 42.7 167.7 41.3 168.8 42.3 169.2 40.9 169.6 42.3 170.7 41.5"/>
    <polygon class="st43" points="177.8 47.8 177.1 49 178.6 49.2 177.3 49.8 178.3 50.8 176.9 50.5 177.2 51.9 176.2 50.9 175.6 52.2 175.4 50.8 174.2 51.5 174.8 50.2 173.4 50 174.7 49.4 173.7 48.5 175.1 48.7 174.8 47.3 175.8 48.3 176.4 47 176.6 48.5 177.8 47.8"/>
    <polygon class="st42" points="184.2 54.7 183.4 55.9 184.8 56.2 183.4 56.7 184.4 57.8 183 57.4 183.1 58.8 182.3 57.7 181.5 58.9 181.5 57.5 180.2 58 181 56.9 179.6 56.6 180.9 56.1 180 55 181.4 55.4 181.2 54 182.1 55.1 182.8 53.9 182.9 55.3 184.2 54.7"/>
    <polygon class="st45" points="189.8 62.3 188.9 63.4 190.3 63.9 188.9 64.2 189.7 65.4 188.4 64.9 188.4 66.3 187.6 65.1 186.7 66.2 186.8 64.8 185.5 65.2 186.4 64.1 185.1 63.7 186.4 63.3 185.6 62.2 186.9 62.7 187 61.3 187.7 62.5 188.6 61.3 188.5 62.8 189.8 62.3"/>
    <polygon class="st44" points="194.6 70.5 193.6 71.5 194.9 72 193.5 72.2 194.2 73.5 192.9 72.8 192.8 74.2 192.1 73 191.2 74 191.4 72.6 190 72.9 191.1 71.9 189.8 71.3 191.2 71.1 190.5 69.9 191.7 70.5 191.9 69.1 192.5 70.4 193.5 69.3 193.2 70.7 194.6 70.5"/>
    <polygon class="st47" points="198.6 79 197.5 79.9 198.7 80.6 197.3 80.7 197.8 82 196.7 81.2 196.4 82.6 195.9 81.3 194.8 82.2 195.2 80.8 193.8 81 194.9 80.1 193.7 79.4 195.1 79.3 194.5 78 195.7 78.8 196 77.4 196.5 78.7 197.6 77.8 197.2 79.2 198.6 79"/>
    <polygon class="st46" points="201.7 88 200.4 88.7 201.6 89.6 200.2 89.5 200.6 90.9 199.5 90 199.1 91.3 198.7 89.9 197.5 90.7 198.1 89.4 196.6 89.4 197.8 88.7 196.7 87.8 198.1 87.9 197.7 86.5 198.8 87.5 199.2 86.1 199.6 87.5 200.8 86.7 200.2 88 201.7 88"/>
    <polygon class="st49" points="203.8 97.2 202.5 97.8 203.5 98.8 202.1 98.6 202.4 99.9 201.4 98.9 200.8 100.2 200.6 98.8 199.4 99.5 200.1 98.3 198.6 98.1 199.9 97.5 198.9 96.5 200.3 96.7 200 95.4 201 96.4 201.6 95.1 201.8 96.5 203 95.8 202.4 97 203.8 97.2"/>
    <polygon class="st48" points="204.9 106.6 203.6 107.1 204.5 108.1 203.2 107.8 203.3 109.2 202.4 108.1 201.7 109.3 201.6 107.9 200.3 108.4 201.1 107.3 199.7 107 201.1 106.5 200.1 105.4 201.5 105.8 201.4 104.4 202.2 105.5 203 104.2 203 105.7 204.3 105.1 203.5 106.3 204.9 106.6"/>
    <polygon class="st34" points="205.1 116 203.7 116.4 204.6 117.5 203.2 117 203.2 118.4 202.5 117.2 201.6 118.4 201.7 117 200.4 117.4 201.3 116.3 199.9 115.9 201.3 115.5 200.5 114.4 201.8 114.9 201.8 113.5 202.6 114.6 203.4 113.5 203.3 114.9 204.7 114.5 203.8 115.6 205.1 116"/>
    <polygon class="st35" points="204.3 125.4 202.9 125.7 203.6 126.9 202.4 126.2 202.2 127.7 201.6 126.4 200.6 127.4 200.9 126 199.5 126.3 200.5 125.3 199.2 124.8 200.6 124.5 199.9 123.3 201.1 124 201.3 122.5 201.9 123.8 202.9 122.8 202.7 124.2 204 123.9 203 124.9 204.3 125.4"/>
    <polygon class="st30" points="202.6 134.7 201.2 134.8 201.7 136.1 200.6 135.3 200.3 136.7 199.8 135.4 198.7 136.3 199.1 135 197.7 135.1 198.8 134.2 197.5 133.5 198.9 133.4 198.4 132.1 199.6 132.9 199.9 131.5 200.4 132.9 201.4 131.9 201 133.3 202.5 133.1 201.4 134 202.6 134.7"/>
    <polygon class="st40" points="199.9 143.8 198.5 143.7 198.9 145.1 197.8 144.2 197.4 145.5 197 144.2 195.9 145 196.4 143.7 194.9 143.7 196.1 142.9 195 142.1 196.4 142.1 196 140.8 197.1 141.7 197.5 140.3 197.9 141.7 199 140.9 198.5 142.2 199.9 142.2 198.7 143 199.9 143.8"/>
    <polygon class="st38" points="196.3 152.5 194.9 152.3 195.2 153.7 194.2 152.7 193.6 154 193.4 152.6 192.1 153.3 192.8 152 191.4 151.9 192.6 151.2 191.6 150.3 193 150.5 192.7 149.1 193.7 150.1 194.3 148.8 194.5 150.2 195.7 149.5 195.1 150.8 196.5 150.9 195.2 151.6 196.3 152.5"/>
    <polygon class="st39" points="191.8 160.8 190.4 160.5 190.6 161.9 189.7 160.8 189 162 188.9 160.6 187.6 161.2 188.4 160 187 159.7 188.3 159.2 187.3 158.1 188.7 158.5 188.6 157.1 189.5 158.2 190.2 157 190.2 158.4 191.5 157.8 190.8 159 192.2 159.3 190.8 159.8 191.8 160.8"/>
    <polygon class="st41" points="186.5 168.7 185.1 168.2 185.1 169.6 184.4 168.4 183.5 169.5 183.6 168.1 182.3 168.6 183.2 167.5 181.8 167 183.2 166.7 182.3 165.5 183.7 166 183.6 164.6 184.4 165.8 185.3 164.6 185.2 166.1 186.5 165.6 185.6 166.7 187 167.1 185.6 167.5 186.5 168.7"/>
    <polygon class="st33" points="180.4 175.9 179.1 175.2 179 176.7 178.3 175.4 177.4 176.5 177.6 175.1 176.2 175.4 177.2 174.4 175.9 173.8 177.3 173.6 176.6 172.3 177.8 173 178 171.5 178.6 172.8 179.6 171.7 179.4 173.2 180.8 172.8 179.7 173.9 181.1 174.4 179.6 174.7 180.4 175.9"/>
    <polygon class="st32" points="173.6 182.4 172.4 181.7 172.1 183.1 171.6 181.7 170.5 182.7 170.9 181.3 169.5 181.5 170.6 180.6 169.3 179.9 170.7 179.8 170.2 178.5 171.4 179.3 171.6 177.9 172.2 179.2 173.2 178.2 172.8 179.6 174.3 179.5 173.2 180.4 174.4 181.1 173 181.1 173.6 182.4"/>
    <polygon class="st31" points="166.1 188.3 165 187.4 164.6 188.7 164.2 187.4 163.1 188.2 163.6 186.9 162.1 186.9 163.3 186.1 162.2 185.3 163.6 185.4 163.1 184 164.2 184.9 164.7 183.5 165 184.9 166.2 184.1 165.7 185.4 167.1 185.4 165.9 186.2 167.1 187 165.7 186.9 166.1 188.3"/>
  </g>
</svg>