<svg xmlns="http://www.w3.org/2000/svg" width="224" height="44" viewBox="0 0 224 44"><g fill="none" fill-rule="evenodd"><path fill="#020303" d="M222.238225,17.3197285 L222.382488,17.3255937 C223.286614,17.3994022 224.000249,18.1606055 224.000249,19.0853264 C224.000249,20.0599665 223.209517,20.8521739 222.238225,20.8521739 C221.268177,20.8521739 220.477445,20.0599665 220.477445,19.0853264 C220.477445,18.1119359 221.268177,17.3197285 222.238225,17.3197285 Z M222.238225,17.7320762 L222.108771,17.7382847 C221.426953,17.8040004 220.890867,18.3832328 220.890867,19.0853264 C220.890867,19.8313009 221.496057,20.4373271 222.238225,20.4373271 L222.36808,20.4311311 C223.051845,20.3655457 223.586827,19.7874201 223.586827,19.0853264 C223.586827,18.3393519 222.982882,17.7320762 222.238225,17.7320762 Z M222.316177,18.092818 C222.501719,18.092818 222.637451,18.109062 222.720882,18.1452986 C222.805559,18.1815352 222.874048,18.2452617 222.923858,18.3352285 C222.976158,18.4264448 223.001063,18.5301565 223.001063,18.6476131 C223.001063,18.7963082 222.963705,18.918763 222.88401,19.016227 C222.809295,19.1124414 222.693487,19.1736688 222.540322,19.1986596 C222.616282,19.2498907 222.679789,19.3048704 222.729599,19.3648482 C222.778164,19.4248261 222.845407,19.5310368 222.928839,19.6847301 L223.141776,20.0708375 L222.718392,20.0708375 L222.465607,19.6397467 C222.375949,19.4860534 222.313687,19.389839 222.28131,19.3498537 C222.247689,19.3098685 222.212822,19.2823787 222.174219,19.2686337 C222.139352,19.2548888 222.078335,19.246142 221.997394,19.246142 L221.92517,19.246142 L221.92517,20.0708375 L221.575255,20.0708375 L221.575255,18.092818 L222.316177,18.092818 Z M222.279447,18.4267447 L221.92517,18.4264448 L221.92517,18.9300088 L222.186671,18.9300088 C222.35478,18.9300088 222.460626,18.921262 222.502964,18.905018 C222.545303,18.888774 222.577679,18.8600346 222.602584,18.821299 C222.624998,18.7813137 222.637451,18.7325817 222.637451,18.6738534 C222.637451,18.6063783 222.620017,18.5526482 222.588886,18.5114134 C222.560245,18.4701786 222.514171,18.4451879 222.45689,18.433942 C222.433977,18.4299435 222.374405,18.4275444 222.279447,18.4267447 Z M88.6661893,11.4112856 C92.5550955,11.4112856 94.5001712,12.3734303 94.5001712,14.2964701 C94.5001712,14.6925738 94.4254564,15.1261636 94.2760268,15.5972397 L93.3171866,18.2275182 L81.8160859,18.2275182 L81.9007627,17.9451225 C82.0701163,17.4553034 82.078833,17.0779428 81.9294034,16.8130406 C81.7954702,16.596454 81.5277267,16.4756344 81.126173,16.4514595 L80.969318,16.4469259 C80.0677592,16.4469259 79.4849837,16.8055434 79.2222366,17.521529 C79.0715617,17.9551188 79.1935959,18.3037401 79.5883392,18.5673927 C79.7203353,18.6623577 80.0963999,18.821049 80.7165329,19.0472155 L88.8355429,22.0173686 C90.1492784,22.4896941 90.8092593,23.2731548 90.8092593,24.366501 C90.8092593,25.0075143 90.6286985,25.8184648 90.2738031,26.7993525 L89.3983945,29.2596939 C88.2821424,32.365534 85.4694235,33.9576794 80.9625416,34.0372859 L80.6032154,34.0404283 L68.9053657,34.0404283 C65.0152142,34.0404283 63.0701385,33.0695368 63.0701385,31.1265044 C63.0701385,30.7304007 63.1535701,30.2968108 63.3241689,29.8257348 L64.7611839,25.7809786 L76.3469614,25.7809786 L75.7841098,27.350399 C75.5948322,27.9114418 75.5674368,28.3125437 75.6981877,28.5562037 C75.8301839,28.7986141 76.1402504,28.9198194 76.6296324,28.9198194 C77.5685486,28.9198194 78.2447177,28.3462812 78.6581397,27.1967058 C78.922132,26.5019623 78.9968469,26.0121432 78.8835294,25.7297475 C78.7527785,25.4461023 78.3107158,25.1737029 77.5598319,24.9112998 L70.5677703,22.4821969 C68.9713638,21.9174055 67.9652042,21.3051316 67.5517823,20.6453753 C67.3450713,20.3254934 67.2417158,19.9406356 67.2417158,19.4883026 C67.2417158,19.0359697 67.3450713,18.5274075 67.5517823,17.9626161 L68.3985502,15.590992 C69.3935025,12.8045211 72.250099,11.4112856 76.9683396,11.4112856 L88.6661893,11.4112856 Z M200.183905,17.516156 C201.345721,17.516156 202.221129,17.6023741 202.808886,17.77606 C203.838705,18.0859455 204.360463,18.6757277 204.371671,19.5466561 C204.371671,19.9352625 204.278277,20.3838469 204.09149,20.8936586 L203.529884,22.5018147 L195.31499,22.5018147 L195.535398,22.0394854 C195.749581,21.4084685 195.501777,21.0948343 194.793231,21.0948343 C194.112081,21.0948343 193.636397,21.4771931 193.371159,22.2406611 L191.006435,28.8569676 C190.925494,29.0981285 190.885646,29.2993042 190.885646,29.4592452 C190.885646,29.809116 191.13345,29.9815523 191.627813,29.9815523 C192.322661,29.9815523 192.802081,29.6079402 193.071055,28.8569676 L193.411007,27.8710817 L192.308964,27.8710817 L193.55172,24.3323886 L202.868658,24.3323886 L202.717919,24.756633 C201.177861,29.0912647 200.182513,31.8998716 199.729487,33.1824534 L199.714075,33.2262856 L199.704075,33.2542856 L199.687339,33.3018104 C199.673854,33.3400081 199.660933,33.3766179 199.648576,33.4116396 L199.621075,33.4882856 L199.613075,33.5112856 L199.603075,33.5392856 L199.595075,33.5622856 L199.589075,33.5792856 L199.585075,33.5922856 L195.434533,33.6027149 L195.114505,32.4556385 C194.793231,32.8055093 194.239096,33.0866555 193.450855,33.3003266 C192.78295,33.4832136 191.882461,33.5834865 190.752196,33.6002064 L190.406226,33.6027149 L186.035409,33.6027149 C184.914687,33.6027149 184.0729,33.5089995 183.512539,33.3203192 C182.589811,33.0129327 182.127825,32.4169028 182.127825,31.53098 C182.127825,31.0486582 182.249859,30.4726209 182.488946,29.8016187 L185.655609,20.8936586 C186.110124,19.6066339 186.91829,18.6957203 188.080105,18.1584188 C189.001588,17.7310766 190.231892,17.516156 191.767281,17.516156 L200.183905,17.516156 Z M183.775784,13.3113339 L180.790927,33.5588561 L171.914807,33.5588561 L172.735425,30.1163775 L170.273572,30.1163775 L168.485397,33.5588561 L159.631692,33.5588561 L172.137707,13.3113339 L183.775784,13.3113339 Z M138.468222,17.1521654 L139.319971,23.884679 L141.720807,17.1521654 L149.284437,17.1521654 L143.467888,33.4736376 L135.640266,33.4736376 L134.747424,25.8027206 L132.021578,33.4736376 L124.459194,33.4736376 L130.273252,17.1521654 L138.468222,17.1521654 Z M108.958982,17.1524153 L107.63653,20.8448016 L103.367824,20.8448016 L98.8737275,33.4738875 L90.6389095,33.4738875 L95.1330057,20.8448016 L90.863054,20.8448016 L91.4333771,19.2491409 L93.9114185,19.2491409 L94.6747548,17.1524153 L108.958982,17.1524153 Z M164.390527,17.1521654 L163.049396,20.8445517 L157.965053,20.8445517 L157.315034,22.6601312 L162.418056,22.6601312 L161.098094,26.3537671 L155.995072,26.3537671 L154.794654,29.7812512 L159.897676,29.7812512 L158.576469,33.4736376 L145.177612,33.4736376 L150.99167,17.1521654 L164.390527,17.1521654 Z M123.462747,17.1529151 C124.641996,17.1529151 125.527367,17.2403828 126.12633,17.4165677 C127.169847,17.7302019 127.697832,18.3287309 127.712775,19.2121546 C127.712775,19.6082583 127.616891,20.0630903 127.426368,20.5803993 L124.216122,29.6183114 C123.671949,31.1402493 122.838878,32.1886122 121.71442,32.7596513 C120.85437,33.2051534 119.615742,33.4405776 118.000562,33.4699874 L117.648689,33.4731378 L109.10754,33.4731378 C107.97063,33.4731378 107.115145,33.3781728 106.546067,33.1894925 C105.610887,32.8758583 105.143919,32.2698322 105.143919,31.3726635 C105.143919,30.8828444 105.265954,30.2980604 105.508777,29.6183114 L108.721514,20.5803993 C109.182255,19.273382 110.002873,18.3487235 111.182122,17.8051742 C112.118548,17.3703348 113.363794,17.1529151 114.921598,17.1529151 L123.462747,17.1529151 Z M220.211585,17.3783319 L218.889133,21.016988 L213.879505,21.016988 L213.236957,22.8075767 L218.267755,22.8075767 L216.965226,26.4462329 L211.935674,26.4462329 L210.75269,29.8237356 L215.782242,29.8237356 L214.479714,33.4636413 L201.27387,33.4636413 L207.004496,17.3783319 L220.211585,17.3783319 Z M117.992377,20.7840741 C117.301265,20.7840741 116.819355,21.171431 116.549136,21.9436458 L114.150791,28.6399228 C114.001361,29.0485219 113.980192,29.3396643 114.089773,29.5158493 C114.184412,29.6932837 114.414783,29.7795019 114.780885,29.7795019 C115.485695,29.7795019 115.973832,29.4008917 116.245296,28.6399228 L118.643641,21.9436458 C118.725828,21.7124812 118.765676,21.5163036 118.765676,21.3526141 C118.765676,20.9727544 118.50791,20.7840741 117.992377,20.7840741 Z M174.878495,21.1771789 L171.914807,26.5926788 L173.722906,26.5926788 L174.878495,21.1771789 Z M67.8129105,38.0668162 L67.7083098,38.5391418 L64.4470081,38.5391418 L64.0086812,40.6383665 L67.0558004,40.6383665 L66.9536902,41.1106921 L63.9140424,41.1106921 L63.4358676,43.4060943 L66.7781103,43.4060943 L66.6747548,43.8771704 L62.7920749,43.8771704 L64.0012097,38.0668162 L67.8129105,38.0668162 Z M72.217349,43.8771704 L71.6208757,43.8771704 L69.353281,38.6853378 L69.3370928,38.6853378 L68.2786329,43.8771704 L67.7618554,43.8771704 L68.9871784,38.0668162 L69.5998399,38.0668162 L71.8674346,43.2586488 L71.8836228,43.2586488 L72.9333659,38.0668162 L73.4588602,38.0668162 L72.217349,43.8771704 Z M77.2266038,37.9443615 C78.5864135,37.9443615 79.3653,38.5899056 79.4679557,39.6962422 L79.4780103,39.8574049 L78.9363279,39.8574049 C78.9051967,38.887763 78.2128394,38.416687 77.1780392,38.416687 C75.6824976,38.416687 74.6726023,39.9711129 74.6726023,41.5330361 C74.6726023,42.7213472 75.2927353,43.5272996 76.5093416,43.5272996 C77.7595695,43.5272996 78.5864135,42.6076392 78.7781815,41.3955869 L76.8206533,41.3955869 L76.9314803,40.9232613 L79.3584666,40.9232613 L78.7619933,43.8771704 L78.3958907,43.8771704 L78.4917747,42.9012808 L78.4755865,42.9012808 C78.031567,43.6113757 77.3964275,43.9497647 76.6010755,43.9944831 L76.4147028,43.9996251 C74.9428209,43.9996251 74.1309199,43.054974 74.1309199,41.5655241 C74.1309199,39.6949649 75.1968513,37.9443615 77.2266038,37.9443615 Z M82.0198083,38.0668162 L80.8193903,43.8771704 L80.2777079,43.8771704 L81.4793712,38.0668162 L82.0198083,38.0668162 Z M86.9590803,43.8771704 L86.362607,43.8771704 L84.0950123,38.6853378 L84.0788241,38.6853378 L83.0203642,43.8771704 L82.5035868,43.8771704 L83.7289097,38.0668162 L84.3415712,38.0668162 L86.6091659,43.2586488 L86.6253541,43.2586488 L87.6750973,38.0668162 L88.1993462,38.0668162 L86.9590803,43.8771704 Z M93.6862778,38.0668162 L93.5829223,38.5391418 L90.3216206,38.5391418 L89.8832937,40.6383665 L92.9304129,40.6383665 L92.8283027,41.1106921 L89.7886549,41.1106921 L89.3104801,43.4060943 L92.6527229,43.4060943 L92.5493674,43.8771704 L88.6666874,43.8771704 L89.8758222,38.0668162 L93.6862778,38.0668162 Z M98.6729937,38.0668162 L98.568393,38.5391418 L95.3070912,38.5391418 L94.8700096,40.6383665 L97.9158836,40.6383665 L97.8137733,41.1106921 L94.7741255,41.1106921 L94.297196,43.4060943 L97.6381935,43.4060943 L97.534838,43.8771704 L93.6521581,43.8771704 L94.8612928,38.0668162 L98.6729937,38.0668162 Z M102.266154,38.0668162 C103.212541,38.0668162 103.754224,38.562883 103.754224,39.5150314 C103.754224,40.3697157 103.149034,41.0457161 102.313473,41.1031948 L102.313473,41.1181893 C102.847684,41.2331468 103.038207,41.6317496 103.038207,42.1603044 C103.038207,42.567654 102.958511,42.9750035 102.958511,43.3723568 C102.958511,43.4833158 102.968871,43.667048 103.01382,43.794321 L103.054395,43.8771704 L102.49777,43.8771704 C102.433017,43.8371851 102.416829,43.3411183 102.416829,43.2836396 C102.416829,42.941266 102.49777,42.583898 102.49777,42.2415244 C102.49777,41.6892284 102.29853,41.2981229 101.717,41.2981229 L99.7121523,41.2981229 L99.1791866,43.8771704 L98.6387494,43.8771704 L99.8478842,38.0668162 L102.266154,38.0668162 Z M102.242494,38.5391418 L100.293683,38.5391418 L99.8155078,40.8257973 L101.733188,40.8257973 C102.552561,40.8257973 103.212541,40.4184477 103.212541,39.5562662 C103.212541,38.8727686 102.934851,38.5391418 102.242494,38.5391418 Z M106.066149,38.0668162 L104.864486,43.8771704 L104.322804,43.8771704 L105.524467,38.0668162 L106.066149,38.0668162 Z M111.005795,43.8771704 L110.408076,43.8771704 L108.140482,38.6853378 L108.125539,38.6853378 L107.067079,43.8771704 L106.550301,43.8771704 L107.775624,38.0668162 L108.387041,38.0668162 L110.65588,43.2586488 L110.672069,43.2586488 L111.721812,38.0668162 L112.247306,38.0668162 L111.005795,43.8771704 Z M116.023517,37.9443615 C117.382138,37.9443615 118.160971,38.5899056 118.263624,39.6962422 L118.273679,39.8574049 L117.733241,39.8574049 C117.700865,38.887763 117.008508,38.416687 115.974953,38.416687 C114.478166,38.416687 113.468271,39.9711129 113.468271,41.5330361 C113.468271,42.7213472 114.088404,43.5272996 115.306255,43.5272996 C116.555238,43.5272996 117.383327,42.6076392 117.57385,41.3955869 L115.616322,41.3955869 L115.728394,40.9232613 L118.154135,40.9232613 L117.557662,43.8771704 L117.192804,43.8771704 L117.287443,42.9012808 L117.271255,42.9012808 C116.828392,43.6113757 116.193335,43.9497647 115.397989,43.9944831 L115.211616,43.9996251 C113.739734,43.9996251 112.927833,43.054974 112.927833,41.5655241 C112.927833,39.6949649 113.993765,37.9443615 116.023517,37.9443615 Z M126.780832,38.0668162 L126.687439,38.5391418 L124.737382,38.5391418 L123.599226,43.8771704 L123.057544,43.8771704 L124.195699,38.5391418 L122.246888,38.5391418 L122.341527,38.0668162 L126.780832,38.0668162 Z M130.988023,43.8771704 L130.446341,43.8771704 L131.035343,41.0607105 L127.749136,41.0607105 L127.160134,43.8771704 L126.619697,43.8771704 L127.828832,38.0668162 L128.369269,38.0668162 L127.84502,40.5896345 L131.131227,40.5896345 L131.655476,38.0668162 L132.197158,38.0668162 L130.988023,43.8771704 Z M137.779725,38.0668162 L137.675124,38.5391418 L134.412577,38.5391418 L133.975495,40.6383665 L137.022615,40.6383665 L136.919259,41.1106921 L133.880857,41.1106921 L133.402682,43.4060943 L136.744925,43.4060943 L136.641569,43.8771704 L132.758889,43.8771704 L133.968024,38.0668162 L137.779725,38.0668162 Z M143.996745,38.0663164 C144.847248,38.0663164 145.507229,38.603618 145.507229,39.4982876 C145.507229,40.6454829 144.764034,41.3211971 143.711148,41.3829495 L143.550946,41.3875898 L141.546099,41.3875898 L141.020604,43.8779201 L140.478922,43.8779201 L141.704245,38.0663164 L143.996745,38.0663164 Z M143.813693,38.538642 L142.150043,38.538642 L141.649454,40.9152642 L143.565889,40.9152642 C144.355376,40.9152642 144.968037,40.4191975 144.968037,39.5807571 C144.968037,38.8072928 144.506051,38.538642 143.813693,38.538642 Z M149.314945,37.9439866 C150.763167,37.9439866 151.670952,38.912379 151.670952,40.3780876 C151.670952,42.2116605 150.637663,43.8852688 148.757806,43.9948053 L148.560326,44.0004998 C147.080972,44.0004998 146.229223,42.9908727 146.229223,41.525164 C146.229223,39.6695993 147.367379,37.9439866 149.314945,37.9439866 Z M149.307474,38.4163122 C147.59775,38.4163122 146.76966,39.9944793 146.76966,41.5751455 C146.76966,42.7622071 147.469489,43.5269247 148.647493,43.5269247 C150.191599,43.5269247 151.12927,41.9575043 151.12927,40.5155369 C151.12927,39.3122313 150.557702,38.4163122 149.307474,38.4163122 Z M153.400974,38.0668162 L153.696097,43.2349076 L153.712286,43.2349076 L156.130555,38.0668162 L156.783065,38.0668162 L157.172827,43.1861756 L157.189015,43.1861756 L159.511401,38.0668162 L160.076743,38.0668162 L157.33969,43.8771704 L156.750688,43.8771704 L156.377114,38.595371 L156.360926,38.595371 L153.879149,43.8771704 L153.282676,43.8771704 L152.860537,38.0668162 L153.400974,38.0668162 Z M164.99771,38.0668162 L164.893109,38.5391418 L161.631807,38.5391418 L161.194725,40.6383665 L164.240599,40.6383665 L164.138489,41.1106921 L161.098841,41.1106921 L160.620667,43.4060943 L163.962909,43.4060943 L163.859554,43.8771704 L159.975629,43.8771704 L161.186009,38.0668162 L164.99771,38.0668162 Z M168.589624,38.0668162 C169.537257,38.0668162 170.077695,38.562883 170.077695,39.5150314 C170.077695,40.3697157 169.47375,41.0457161 168.638189,41.1031948 L168.638189,41.1181893 C169.169909,41.2331468 169.362923,41.6317496 169.362923,42.1603044 C169.362923,42.567654 169.283227,42.9750035 169.283227,43.3723568 C169.283227,43.4833158 169.293587,43.667048 169.337898,43.794321 L169.377866,43.8771704 L168.82124,43.8771704 C168.757733,43.8371851 168.741545,43.3411183 168.741545,43.2836396 C168.741545,42.941266 168.82124,42.583898 168.82124,42.2415244 C168.82124,41.6892284 168.622001,41.2981229 168.040471,41.2981229 L166.036868,41.2981229 L165.503903,43.8771704 L164.96222,43.8771704 L166.1726,38.0668162 L168.589624,38.0668162 Z M168.56721,38.5391418 L166.617153,38.5391418 L166.140224,40.8257973 L168.057904,40.8257973 C168.877276,40.8257973 169.537257,40.4184477 169.537257,39.5562662 C169.537257,38.8727686 169.259567,38.5391418 168.56721,38.5391418 Z M176.589215,37.9439866 C178.037437,37.9439866 178.943977,38.912379 178.943977,40.3780876 C178.943977,42.2116605 177.911852,43.8852688 176.030947,43.9948053 L175.83335,44.0004998 C174.353997,44.0004998 173.502248,42.9908727 173.502248,41.525164 C173.502248,39.6695993 174.640404,37.9439866 176.589215,37.9439866 Z M176.581744,38.4163122 C174.870774,38.4163122 174.043931,39.9944793 174.043931,41.5751455 C174.043931,42.7622071 174.743759,43.5269247 175.921763,43.5269247 C177.464624,43.5269247 178.40354,41.9575043 178.40354,40.5155369 C178.40354,39.3122313 177.830726,38.4163122 176.581744,38.4163122 Z M184.502386,38.0668162 L184.406502,38.5391418 L181.312063,38.5391418 L180.874982,40.6383665 L183.618261,40.6383665 L183.532339,41.1106921 L180.771626,41.1106921 L180.190096,43.8771704 L179.648413,43.8771704 L180.866265,38.0668162 L184.502386,38.0668162 Z M197.89153,38.0665663 L198.92633,43.87817 L198.362233,43.87817 L198.075827,42.0713373 L195.481977,42.0713373 L194.430989,43.87817 L193.827044,43.87817 L197.303774,38.0665663 L197.89153,38.0665663 Z M188.158929,38.0668162 L188.452807,43.2349076 L188.46775,43.2349076 L190.887265,38.0668162 L191.539775,38.0668162 L191.929537,43.1861756 L191.945725,43.1861756 L194.269356,38.0668162 L194.832207,38.0668162 L192.0964,43.8771704 L191.508643,43.8771704 L191.133824,38.595371 L191.117636,38.595371 L188.635859,43.8771704 L188.03814,43.8771704 L187.617247,38.0668162 L188.158929,38.0668162 Z M197.510485,38.5388919 L197.495542,38.5388919 L195.752196,41.5990117 L197.996131,41.5990117 L197.510485,38.5388919 Z M204.348758,38.0668162 L204.255365,38.5391418 L202.305308,38.5391418 L201.167152,43.8771704 L200.62547,43.8771704 L201.763625,38.5391418 L199.814814,38.5391418 L199.909453,38.0668162 L204.348758,38.0668162 Z M209.207214,38.0668162 L209.103858,38.5391418 L205.842556,38.5391418 L205.404229,40.6383665 L208.451349,40.6383665 L208.349238,41.1106921 L205.309591,41.1106921 L204.832661,43.4060943 L208.173659,43.4060943 L208.070303,43.8771704 L204.187623,43.8771704 L205.396758,38.0668162 L209.207214,38.0668162 Z M212.801743,38.0668162 C213.749376,38.0668162 214.288568,38.562883 214.288568,39.5150314 C214.288568,40.3697157 213.684623,41.0457161 212.849063,41.1031948 L212.849063,41.1181893 C213.382028,41.2331468 213.573796,41.6317496 213.573796,42.1603044 C213.573796,42.567654 213.494101,42.9750035 213.494101,43.3723568 C213.494101,43.4833158 213.504461,43.667048 213.54941,43.794321 L213.589985,43.8771704 L213.033359,43.8771704 C212.968606,43.8371851 212.952418,43.3411183 212.952418,43.2836396 C212.952418,42.941266 213.033359,42.583898 213.033359,42.2415244 C213.033359,41.6892284 212.832875,41.2981229 212.252589,41.2981229 L210.247742,41.2981229 L209.714776,43.8771704 L209.173094,43.8771704 L210.383474,38.0668162 L212.801743,38.0668162 Z M212.778084,38.5391418 L210.829272,38.5391418 L210.351097,40.8257973 L212.268778,40.8257973 C213.08815,40.8257973 213.749376,40.4184477 213.749376,39.5562662 C213.749376,38.8727686 213.470441,38.5391418 212.778084,38.5391418 Z"/><path fill="#A95E27" d="M60.7966912,29.3828984 L61.7704743,26.646409 L58.0235263,25.1082271 L56.9364257,23.9511544 L53.3700385,20.1950416 L51.8334037,6.77374833 L50.6653621,6.39388862 L50.30175,6.66753756 L49.8223299,13.1663874 L49.1498966,13.2238662 L48.365391,12.7040582 L48.3081097,12.1967455 L47.6344311,11.6344532 L47.1164084,11.8306307 L46.9470548,11.6631926 L46.0641747,2.58404566 L45.7615797,2.27416011 L35.2180739,0.815948655 L34.7834827,0.266151705 L33.6328745,0 L29.7900425,1.60315792 L28.456383,19.5177917 L21.3335705,22.4741999 L21.2214983,23.1339562 L20.3049966,23.7687218 L19.9862133,23.7687218 L16.4883147,25.6455286 L16.4883147,26.0016471 L13.3291232,27.4673558 L11.6256254,29.9564365 C11.6256254,29.9564365 3.37710969,33.3139466 0,35.5543691 C9.68677592,33.2789595 19.9862133,31.8120012 34.2853839,31.593332 L41.6211336,31.593332 C48.3965222,31.6970437 54.8493918,32.0856502 60.8054079,32.7029222 C60.5600943,32.1868628 60.4654555,31.6433135 60.4654555,31.1272541 C60.4654555,30.5799563 60.5762825,29.9926732 60.7966912,29.3828984"/></g></svg>