<?xml version="1.0" encoding="UTF-8"?>
<svg id="Layer_1" xmlns="http://www.w3.org/2000/svg" version="1.1" viewBox="0 0 128 128">
  <!-- Generator: Adobe Illustrator 30.1.0, SVG Export Plug-In . SVG Version: 2.1.1 Build 136)  -->
  <defs>
    <style>
      .st0 {
        fill: #1c3664;
      }
    </style>
  </defs>
  <path class="st0" d="M109.8,60.6h-29.5l-1.9-9.8h5.1l4.2-22.3v-1.9c0-13.4-12.4-24.2-27.7-24.2h0c-9.4,0-17.1.5-22.2,5.5s-5.7,10-5.5,18.7v1.9h6.1c.7,7.4,5.5,13.6,12.3,16.8h-10.9c-9.6,0-11.2,7.2-11.2,7.4l-10.1,34.4h44.5l2.8-16.5h-22.5l2.4-10,3.7,1-1.3,5.3h22.2l-.5,3.1h38.7l-.7,3.9h-38.7l-2.9,17.1h-32.4l-5.8,35.2h29.1l3.4-19.3h4.5l-3.1,19.2h34.4v-15.6h-4.6l2.8-13.5-9.5-12.2.4-4.5h21.6l3.6-19.8h-.4ZM83.5,28.6l-3.5,18.4h-10.2l-3.3-18.4h17ZM41.9,28.7h20.9l2.5,14.5c-1.7.5-3.4.7-5.2.7-9.4,0-17.1-6.6-18.2-15.2Z"/>
</svg>