<?xml version="1.0" encoding="UTF-8"?>
<svg id="Layer_1" xmlns="http://www.w3.org/2000/svg" version="1.1" viewBox="0 0 128 128">
  <!-- Generator: Adobe Illustrator 30.1.0, SVG Export Plug-In . SVG Version: 2.1.1 Build 136)  -->
  <defs>
    <style>
      .st0 {
        fill: #1c3664;
      }
    </style>
  </defs>
  <path class="st0" d="M102,61h-24.5l-1.6-8.1h4.2l3.5-18.5v-1.6c0-11.1-10.3-20.1-23-20.1h0c-7.8,0-14.2.4-18.4,4.6s-4.7,8.3-4.6,15.5v1.6h5.1c.6,6.1,4.6,11.3,10.2,13.9h-9c-8,0-9.3,6-9.3,6.1l-8.4,28.5h36.9l2.3-13.7h-18.7l2-8.3,3.1.8-1.1,4.4h18.4l-.4,2.6h32.1l-.6,3.2h-32.1l-2.4,14.2h-26.9l-4.8,29.2h24.1l2.8-16h3.7l-2.6,15.9h28.5v-12.9h-3.8l2.3-11.2-7.9-10.1.3-3.7h17.9l3-16.4h-.3ZM80.2,34.4l-2.9,15.3h-8.5l-2.7-15.3h14.1ZM45.7,34.5h17.3l2.1,12c-1.4.4-2.8.6-4.3.6-7.8,0-14.2-5.5-15.1-12.6Z"/>
</svg>