<?xml version="1.0" encoding="UTF-8"?>
<svg id="Layer_1" data-name="Layer 1" xmlns="http://www.w3.org/2000/svg" xmlns:xlink="http://www.w3.org/1999/xlink" viewBox="0 0 384.79 114.32">
  <defs>
    <style>
      .cls-1 {
        fill: none;
      }

      .cls-2 {
        fill: #193c6c;
      }

      .cls-3 {
        fill: url(#linear-gradient);
      }

      .cls-4 {
        fill: #fff;
      }

      .cls-5 {
        clip-path: url(#clippath);
      }
    </style>
    <clipPath id="clippath">
      <polygon class="cls-1" points="83.64 38.96 83.14 37.8 63.58 46.18 55.37 46.18 55.14 47.45 63.64 47.45 63.63 47.49 82.92 53.61 83.31 52.42 67.63 47.44 83 47.44 83 46.19 66.77 46.19 83.64 38.96"/>
    </clipPath>
    <linearGradient id="linear-gradient" x1="54.35" y1="46.87" x2="86" y2="46.87" gradientUnits="userSpaceOnUse">
      <stop offset="0" stop-color="#193c6c"/>
      <stop offset=".29" stop-color="#1a3d6d"/>
      <stop offset=".39" stop-color="#214371"/>
      <stop offset=".47" stop-color="#2d4d79"/>
      <stop offset=".53" stop-color="#3e5b83"/>
      <stop offset=".58" stop-color="#546e91"/>
      <stop offset=".62" stop-color="#6f85a3"/>
      <stop offset=".66" stop-color="#90a0b8"/>
      <stop offset=".7" stop-color="#b5c0d0"/>
      <stop offset=".74" stop-color="#dfe3ea"/>
      <stop offset=".76" stop-color="#fff"/>
    </linearGradient>
  </defs>
  <g>
    <path class="cls-2" d="M95.22,40.74h0c-.3,1.87-1.6,2.63-4.52,2.63h-.37l.74-4.68h.57c.96,0,2.74,0,3.35.72.25.29.32.73.23,1.33M107.01,31.42c-2.31-2.71-6.15-4.14-11.09-4.14h-16.93l-16.42,19.65,24.25,18.54,1.82-11.47h6.01c7.74,0,13.32-4.82,14.55-12.59.66-4.16-.08-7.52-2.19-9.99"/>
    <path class="cls-2" d="M251.22,40.88h0c-.27,1.71-1.35,2.34-3.98,2.35l.72-4.54h.33c1.08,0,2.25.07,2.71.62.26.31.34.84.22,1.58M263.92,31.58c-2.4-2.81-6.58-4.3-12.08-4.3h-16.47l-5.95,37.55h14.38l1.51-9.54,3.22,9.54h17.32l-6.95-12.84c-.38-.72-.83-1.24-1.25-1.66,4.37-1.56,7.42-3.94,8.33-9.64h0c.59-3.75-.1-6.82-2.06-9.11"/>
    <path class="cls-4" d="M252.77,41.13c-.58,3.67-4.06,3.67-5.55,3.67h-1.83l1.22-7.68h1.67c1.51,0,3.03.14,3.91,1.17.58.67.77,1.63.58,2.84M256.16,49.18c5.35-1.69,7.51-3.98,8.27-8.73.52-3.28-.05-5.92-1.7-7.85-2.07-2.42-5.93-3.75-10.88-3.75h-15.13l-5.45,34.42h11.2l1.83-11.55h1.47l3.9,11.55h13.55l-5.7-10.53c-.43-.82-.97-1.3-1.5-1.77l-.51-.45.19-1.19.46-.15h0Z"/>
    <path class="cls-2" d="M135.59,46.22c-.58,3.68-3.48,6.26-7.05,6.26-1.67,0-3.01-.54-3.88-1.57-.93-1.09-1.26-2.62-.98-4.45.5-3.16,3.09-6.35,7.07-6.35,1.62,0,2.93.54,3.8,1.56.96,1.12,1.33,2.74,1.04,4.55M146.97,32.64c-3.27-3.82-8.36-5.93-14.35-5.93-11.92,0-21.86,8.13-23.63,19.32-.85,5.36.28,10.04,3.25,13.53,3.22,3.77,8.37,5.85,14.5,5.85,12.11,0,21.82-7.87,23.6-19.13.85-5.35-.32-10.07-3.37-13.64"/>
    <path class="cls-4" d="M96.77,40.98h0c-.63,3.96-4.58,3.96-6.07,3.96h-2.21l1.24-7.82h1.91c1.67,0,3.54.1,4.54,1.27.56.65.75,1.52.58,2.6M105.82,32.44c-2-2.35-5.43-3.59-9.9-3.59h-16.19l-14.9,17.83,20.86,15.95,1.62-10.19h7.35c6.92,0,11.9-4.32,13-11.27.58-3.68-.03-6.62-1.83-8.73"/>
    <path class="cls-4" d="M137.14,46.47h0c-.71,4.47-4.24,7.58-8.6,7.58-2.11,0-3.91-.75-5.08-2.12-1.22-1.42-1.69-3.45-1.33-5.71.7-4.45,4.33-7.68,8.61-7.68,2.09,0,3.82.73,5,2.11,1.26,1.48,1.76,3.54,1.4,5.81M145.78,33.66c-2.96-3.47-7.63-5.38-13.15-5.38-11.14,0-20.43,7.57-22.08,18-.78,4.9.22,9.14,2.89,12.26,2.92,3.42,7.64,5.3,13.31,5.3,11.32,0,20.39-7.32,22.05-17.81.77-4.88-.27-9.16-3.01-12.38"/>
    <path class="cls-2" d="M188.66,64.84h-12.63l-.85-16.49c-.19.63-.4,1.25-.64,1.87l-6.07,14.62h-12.29l-7.2-37.55h15.25l.97,18.4c.33-1.03.7-2.07,1.13-3.08l6.37-15.32h11.28l1.3,18.41c.28-.94.6-1.88.95-2.78l6.22-15.63h15.42l-19.2,37.55h0Z"/>
    <path class="cls-4" d="M177.52,63.27h10.18l17.59-34.41h-11.79l-5.83,14.63c-.78,2-1.37,4.18-1.88,6.25l-.15.59h-1.63l-1.51-21.48h-8.77l-5.97,14.36c-.92,2.16-1.57,4.51-2.12,6.53l-.16.58h-1.63l-1.13-21.48h-11.86l6.6,34.41h9.95l5.66-13.64c.6-1.5.96-3.04,1.34-4.67l.29-1.25h1.8l1.01,19.57h.01Z"/>
  </g>
  <polygon class="cls-2" points="228.23 64.84 202.77 64.84 208.72 27.28 233.79 27.28 231.99 38.69 220.96 38.69 220.67 40.55 230.74 40.55 229.01 51.48 218.94 51.48 218.62 53.44 230.03 53.44 228.23 64.84"/>
  <polygon class="cls-4" points="204.61 63.27 226.89 63.27 228.19 55.01 216.79 55.01 217.6 49.91 227.67 49.91 228.9 42.12 218.83 42.12 219.62 37.12 230.65 37.12 231.95 28.85 210.06 28.85 204.61 63.27"/>
  <path class="cls-4" d="M275.45,65.25c-3.71,0-7.74-1.56-10.54-4.07l-.37-.33,7.24-12.98.39,1.67c.44,1.93.84,3.2,2.25,3.2,1.2,0,1.93-1.08,2.29-3.38l3.47-21.91h14.06l-3.96,24.97c-1.2,7.56-7.3,12.84-14.83,12.84"/>
  <polygon class="cls-4" points="316.21 64.68 290.36 64.68 296.26 27.44 321.73 27.44 319.97 38.53 308.95 38.53 308.6 40.71 318.67 40.71 316.99 51.32 306.92 51.32 306.56 53.59 317.97 53.59 316.21 64.68"/>
  <polygon class="cls-4" points="323.27 27.44 321.21 40.42 328.47 40.09 324.58 64.68 338.92 64.68 342.82 40.08 349.97 40.42 352.03 27.44 323.27 27.44"/>
  <g>
    <path class="cls-4" d="M47.78,38.61h-3.38l-1.09-6.12h5.61l-1.14,6.12ZM41.16,37.52c-3.12,0-5.69-2.2-6.03-5.02h6.9l.85,4.78c-.55.15-1.12.24-1.72.24M41.03,23.83c-3.13,0-5.66.14-7.35,1.84-1.27,1.28-1.87,3.3-1.85,6.2v.62h2.05c.34,3.51,3.48,6.28,7.29,6.28.67,0,1.32-.09,1.94-.26l.24,1.35h5.47l1.4-7.38v-.63c0-4.43-4.13-8.03-9.2-8.03"/>
    <path class="cls-4" d="M56.4,49.66l1.21-6.56h-9.8l-.77-3.85-3.11-.05-.45-.91-1.84-.23h-7.28c-3.2,0-3.73,2.4-3.73,2.42l-3.37,11.38h14.73l.92-5.46-7.46-.02.81-3.29,1.22.3-.43,1.74,7.34.02-.17,1.03h12.81l-.23,1.28h-12.8l-.95,5.66h-10.76l-1.93,11.66h9.61l1.11-6.37h1.48l-1.03,6.36h11.37v-5.14h-1.52l.91-4.48-3.17-4.02.13-1.48h7.15,0Z"/>
    <g>
      <path class="cls-4" d="M32.11,86.8h5.76l.56-4.61h1.25l-1.38,11.34h-1.25l.67-5.54h-5.76l-.67,5.54h-1.25l1.38-11.34h1.25s-.56,4.61-.56,4.61Z"/>
      <path class="cls-4" d="M43.97,82.19l-1.38,11.34h-1.25l1.38-11.34h1.25Z"/>
      <path class="cls-4" d="M52.17,87.83h4.68l-.03.27c-.13,1.05-.44,2.63-1.65,3.94-1.14,1.24-2.56,1.68-4.11,1.68-1.41,0-2.76-.41-3.84-1.5-.82-.83-1.48-2.06-1.48-3.79,0-2.02.82-3.59,1.85-4.62,1.35-1.38,2.9-1.82,4.63-1.82,1.08,0,2.02.19,2.95.78.79.49,1.28,1.12,1.6,1.68l-1.03.85c-.3-.61-.72-1.11-1.36-1.51-.66-.43-1.31-.61-2.17-.61-1.83,0-3.03.76-3.69,1.41-1.03,1.04-1.5,2.53-1.5,3.81,0,1.14.44,2.23,1.16,2.97.89.93,1.99,1.16,3,1.16.93,0,2.05-.17,3-1.16.64-.65,1.03-1.55,1.19-2.36h-3.33l.13-1.19h0Z"/>
      <path class="cls-4" d="M60.68,86.8h5.76l.56-4.61h1.25l-1.38,11.34h-1.25l.67-5.54h-5.76l-.67,5.54h-1.25l1.38-11.34h1.25l-.56,4.61Z"/>
      <path class="cls-4" d="M77.26,82.19c1.14,0,2.14.31,2.71.87.45.44.77,1.19.77,2.14,0,1.1-.42,1.94-.91,2.41-.47.46-1.38.99-3.18.99h-.96l-.61,4.93h-1.25l1.38-11.34h2.05ZM75.83,87.41h1.06c.61,0,1.43-.07,2.02-.61.34-.31.61-.82.61-1.56s-.3-1.21-.62-1.45c-.45-.36-1.14-.41-1.65-.41h-.93s-.49,4.03-.49,4.03Z"/>
      <path class="cls-4" d="M84.88,82.19c.93,0,1.99.05,2.81.83.66.61.81,1.36.81,2.02,0,.9-.2,1.75-.89,2.41-.61.59-1.53.93-2.36,1l2.95,5.07h-1.51l-2.81-4.96h-.32l-.61,4.96h-1.25l1.38-11.34h1.8ZM83.69,87.44h.79c.52,0,1.46-.03,2.09-.6.34-.31.66-.87.66-1.61,0-.87-.42-1.33-.76-1.53s-1.08-.32-1.58-.32h-.71l-.49,4.06Z"/>
      <path class="cls-4" d="M97.42,83.38h-4.58l-.4,3.37h4.44l-.15,1.19h-4.44l-.52,4.4h4.58l-.15,1.19h-5.82l1.38-11.34h5.82l-.15,1.19h0Z"/>
      <path class="cls-4" d="M104.76,84.43c-.13-.39-.37-.68-.62-.88-.42-.32-.88-.36-1.26-.36-.42,0-.96.07-1.41.48-.34.31-.59.82-.59,1.34,0,.36.13.73.47,1.04.22.2.71.48.94.59l1.01.48c.52.24,1.03.54,1.43.97.64.66.76,1.26.76,1.99,0,.66-.12,1.7-.94,2.57-.94.99-2.12,1.09-2.91,1.09-.91,0-1.65-.17-2.32-.85-.49-.51-.86-1.26-.94-2.07l1.25-.34c.03.58.25,1.1.61,1.48.49.51,1.04.59,1.6.59s1.23-.08,1.75-.63c.42-.44.61-1.1.61-1.65,0-.68-.3-1.17-.61-1.45-.22-.2-.74-.51-1.09-.68l-.89-.42c-.3-.14-.96-.48-1.33-.87-.3-.32-.64-.87-.64-1.75,0-.8.24-1.51.88-2.14.71-.7,1.53-.95,2.47-.95.49,0,1.25.07,1.85.48.44.29.81.76,1.01,1.29l-1.06.66h-.03Z"/>
      <path class="cls-4" d="M113.31,84.43c-.13-.39-.37-.68-.62-.88-.42-.32-.88-.36-1.26-.36-.42,0-.96.07-1.41.48-.34.31-.59.82-.59,1.34,0,.36.13.73.47,1.04.22.2.71.48.94.59l1.01.48c.52.24,1.03.54,1.43.97.64.66.76,1.26.76,1.99,0,.66-.12,1.7-.94,2.57-.94.99-2.12,1.09-2.91,1.09-.91,0-1.65-.17-2.32-.85-.49-.51-.86-1.26-.94-2.07l1.25-.34c.03.58.25,1.1.61,1.48.49.51,1.04.59,1.6.59s1.23-.08,1.75-.63c.42-.44.61-1.1.61-1.65,0-.68-.3-1.17-.61-1.45-.22-.2-.74-.51-1.09-.68l-.89-.42c-.3-.14-.96-.48-1.33-.87-.3-.32-.64-.87-.64-1.75,0-.8.24-1.51.88-2.14.71-.7,1.53-.95,2.47-.95.49,0,1.25.07,1.85.48.44.29.81.76,1.01,1.29l-1.06.66h-.03Z"/>
      <path class="cls-4" d="M117.89,88.85c-.07.51-.12.92-.12,1.36,0,.63.2,1.24.72,1.72.59.54,1.23.61,1.88.61.56,0,1.45-.03,2.12-.8.64-.73.76-1.9.84-2.6l.84-6.95h1.25l-.89,7.29c-.15,1.24-.35,2.31-1.31,3.23-.96.92-2.09,1.02-2.98,1.02-1.04,0-1.97-.2-2.74-.95-.52-.51-.98-1.26-.98-2.35,0-.36.08-1.41.12-1.72l.81-6.53h1.25l-.81,6.66h0Z"/>
      <path class="cls-4" d="M130.27,82.19c.93,0,1.99.05,2.81.83.66.61.81,1.36.81,2.02,0,.9-.2,1.75-.89,2.41-.61.59-1.53.93-2.36,1l2.95,5.07h-1.51l-2.81-4.96h-.32l-.61,4.96h-1.25l1.38-11.34h1.8ZM129.08,87.44h.79c.52,0,1.46-.03,2.09-.6.34-.31.66-.87.66-1.61,0-.87-.42-1.33-.76-1.53s-1.08-.32-1.58-.32h-.71l-.49,4.06h0Z"/>
      <path class="cls-4" d="M142.81,83.38h-4.58l-.4,3.37h4.44l-.15,1.19h-4.44l-.52,4.4h4.58l-.15,1.19h-5.82l1.38-11.34h5.82l-.15,1.19h-.01Z"/>
      <path class="cls-4" d="M149.39,82.19l1.94,8.5,4.61-9.08,2.24,9.08,4.31-8.5h1.4l-6.16,11.93-2.2-9.08-4.63,9.08-2.86-11.93h1.36,0Z"/>
      <path class="cls-4" d="M170.35,90.33h-4.78l-1.73,3.2h-1.41l6.61-11.88,3.58,11.88h-1.35l-.93-3.2h0ZM170.01,89.14l-1.35-4.54-2.46,4.54h3.81Z"/>
      <path class="cls-4" d="M177.46,83.38l-1.23,10.15h-1.25l1.23-10.15h-2.73l.15-1.19h6.7l-.15,1.19h-2.73,0Z"/>
      <path class="cls-4" d="M187.87,83.38h-4.58l-.4,3.37h4.44l-.15,1.19h-4.44l-.52,4.4h4.58l-.15,1.19h-5.82l1.38-11.34h5.82l-.15,1.19h-.01Z"/>
      <path class="cls-4" d="M192.28,82.19c.93,0,1.99.05,2.81.83.66.61.81,1.36.81,2.02,0,.9-.2,1.75-.89,2.41-.61.59-1.53.93-2.36,1l2.95,5.07h-1.51l-2.81-4.96h-.32l-.61,4.96h-1.25l1.38-11.34h1.8ZM191.08,87.44h.79c.52,0,1.46-.03,2.09-.6.34-.31.66-.87.66-1.61,0-.87-.42-1.33-.76-1.53s-1.08-.32-1.58-.32h-.71l-.49,4.06h0Z"/>
      <path class="cls-4" d="M205.18,82.19l-.99,8.19c-.13,1.12-.34,2.06-.93,2.65-.24.24-.82.7-1.95.7-.4,0-.76-.07-1.13-.25-.27-.14-.54-.32-.77-.58l.81-.99c.15.19.32.31.5.43.24.14.42.2.72.2.34,0,.62-.08.88-.34s.49-.73.62-1.82l.99-8.19h1.25Z"/>
      <path class="cls-4" d="M213.9,83.38h-4.58l-.4,3.37h4.44l-.15,1.19h-4.44l-.52,4.4h4.58l-.15,1.19h-5.82l1.38-11.34h5.82l-.15,1.19h-.01Z"/>
      <path class="cls-4" d="M219.12,83.38l-1.23,10.15h-1.25l1.23-10.15h-2.73l.15-1.19h6.7l-.15,1.19h-2.73,0Z"/>
      <path class="cls-4" d="M226.96,83.38l-1.23,10.15h-1.25l1.23-10.15h-2.73l.15-1.19h6.7l-.15,1.19h-2.73,0Z"/>
      <path class="cls-4" d="M232.94,82.19l-1.38,11.34h-1.25l1.38-11.34h1.25Z"/>
      <path class="cls-4" d="M234.62,93.53l1.43-11.81,7.62,9.3,1.08-8.82h1.25l-1.45,11.85-7.62-9.3-1.06,8.79h-1.25Z"/>
      <path class="cls-4" d="M254.19,87.83h4.68l-.03.27c-.13,1.05-.44,2.63-1.65,3.94-1.14,1.24-2.56,1.68-4.11,1.68-1.41,0-2.76-.41-3.84-1.5-.83-.83-1.48-2.06-1.48-3.79,0-2.02.83-3.59,1.85-4.62,1.35-1.38,2.89-1.82,4.63-1.82,1.08,0,2.02.19,2.95.78.79.49,1.28,1.12,1.6,1.68l-1.03.85c-.3-.61-.72-1.11-1.36-1.51-.66-.43-1.31-.61-2.17-.61-1.83,0-3.03.76-3.69,1.41-1.03,1.04-1.5,2.53-1.5,3.81,0,1.14.44,2.23,1.16,2.97.89.93,1.99,1.16,3,1.16.93,0,2.05-.17,3-1.16.64-.65,1.03-1.55,1.19-2.36h-3.33l.13-1.19h0Z"/>
      <path class="cls-4" d="M270.68,84.43c-.13-.39-.37-.68-.62-.88-.42-.32-.88-.36-1.26-.36-.42,0-.96.07-1.41.48-.34.31-.59.82-.59,1.34,0,.36.13.73.47,1.04.22.2.71.48.94.59l1.01.48c.52.24,1.03.54,1.43.97.64.66.76,1.26.76,1.99,0,.66-.12,1.7-.94,2.57-.94.99-2.12,1.09-2.91,1.09-.91,0-1.65-.17-2.32-.85-.49-.51-.86-1.26-.94-2.07l1.25-.34c.03.58.25,1.1.61,1.48.49.51,1.04.59,1.6.59s1.23-.08,1.75-.63c.42-.44.61-1.1.61-1.65,0-.68-.3-1.17-.61-1.45-.22-.2-.74-.51-1.09-.68l-.89-.42c-.3-.14-.96-.48-1.33-.87-.3-.32-.64-.87-.64-1.75,0-.8.24-1.51.88-2.14.71-.7,1.53-.95,2.47-.95.49,0,1.25.07,1.85.48.44.29.81.76,1.01,1.29l-1.06.66h-.03Z"/>
      <path class="cls-4" d="M274.98,92.25c-.69-.71-1.45-1.94-1.45-3.76,0-2.33,1.01-3.84,1.92-4.71,1.23-1.19,2.74-1.78,4.61-1.78,1.23,0,2.61.27,3.77,1.43.72.71,1.48,1.9,1.48,3.71s-.62,3.57-1.88,4.81c-.98.95-2.58,1.79-4.71,1.79-1.23,0-2.63-.32-3.74-1.48h0ZM276.37,84.54c-.79.75-1.55,1.99-1.55,3.72,0,1.39.5,2.45,1.16,3.13.59.61,1.5,1.16,2.86,1.16,1.51,0,2.81-.54,3.64-1.36.99-.97,1.53-2.46,1.53-3.81s-.49-2.33-1.18-3.03c-.56-.56-1.48-1.16-2.91-1.16s-2.68.53-3.55,1.34h0Z"/>
      <path class="cls-4" d="M289.7,82.19l-1.23,10.15h3.1l-.15,1.19h-4.34l1.38-11.34h1.25-.01Z"/>
      <path class="cls-4" d="M294.75,88.85c-.07.51-.12.92-.12,1.36,0,.63.2,1.24.72,1.72.59.54,1.23.61,1.88.61.56,0,1.45-.03,2.12-.8.64-.73.76-1.9.84-2.6l.84-6.95h1.25l-.89,7.29c-.15,1.24-.35,2.31-1.31,3.23-.96.92-2.09,1.02-2.98,1.02-1.04,0-1.97-.2-2.74-.95-.52-.51-.98-1.26-.98-2.35,0-.36.08-1.41.12-1.72l.81-6.53h1.25l-.81,6.66h0Z"/>
      <path class="cls-4" d="M307.96,83.38l-1.23,10.15h-1.25l1.23-10.15h-2.73l.15-1.19h6.7l-.15,1.19h-2.73.01Z"/>
      <path class="cls-4" d="M313.94,82.19l-1.38,11.34h-1.25l1.38-11.34h1.25Z"/>
      <path class="cls-4" d="M317.15,92.25c-.69-.71-1.45-1.94-1.45-3.76,0-2.33,1.01-3.84,1.92-4.71,1.23-1.19,2.74-1.78,4.61-1.78,1.23,0,2.61.27,3.77,1.43.72.71,1.48,1.9,1.48,3.71s-.62,3.57-1.88,4.81c-.98.95-2.58,1.79-4.71,1.79-1.23,0-2.63-.32-3.74-1.48h0ZM318.55,84.54c-.79.75-1.55,1.99-1.55,3.72,0,1.39.5,2.45,1.16,3.13.59.61,1.5,1.16,2.86,1.16,1.51,0,2.81-.54,3.64-1.36.99-.97,1.53-2.46,1.53-3.81s-.49-2.33-1.18-3.03c-.56-.56-1.48-1.16-2.91-1.16s-2.68.53-3.55,1.34h0Z"/>
      <path class="cls-4" d="M329.25,93.53l1.43-11.81,7.62,9.3,1.08-8.82h1.25l-1.45,11.85-7.62-9.3-1.06,8.79h-1.25,0Z"/>
      <path class="cls-4" d="M348.44,84.43c-.13-.39-.37-.68-.62-.88-.42-.32-.88-.36-1.26-.36-.42,0-.96.07-1.41.48-.34.31-.59.82-.59,1.34,0,.36.13.73.47,1.04.22.2.71.48.94.59l1.01.48c.52.24,1.03.54,1.43.97.64.66.76,1.26.76,1.99,0,.66-.12,1.7-.94,2.57-.94.99-2.12,1.09-2.91,1.09-.91,0-1.65-.17-2.32-.85-.49-.51-.86-1.26-.94-2.07l1.25-.34c.03.58.25,1.1.61,1.48.49.51,1.04.59,1.6.59s1.23-.08,1.75-.63c.42-.44.61-1.1.61-1.65,0-.68-.3-1.17-.61-1.45-.22-.2-.74-.51-1.09-.68l-.89-.42c-.3-.14-.96-.48-1.33-.87-.3-.32-.64-.87-.64-1.75,0-.8.24-1.51.88-2.14.71-.7,1.53-.95,2.47-.95.49,0,1.25.07,1.85.48.44.29.81.76,1.01,1.29l-1.06.66h-.03Z"/>
    </g>
    <g class="cls-5">
      <rect class="cls-3" x="54.35" y="32.49" width="31.65" height="28.76"/>
    </g>
  </g>
</svg>